<svg width="1408" height="214" viewBox="0 0 1408 214" fill="none" xmlns="http://www.w3.org/2000/svg">
<path d="M1366.66 206.894V67.5703V64.082H1370.05H1399.57H1402.97V67.5703V206.894V210.382H1399.57H1370.05H1366.66V206.894Z" fill="#0A3B39" fill-opacity="0.5"/>
<path d="M1400.47 43.3835C1398.29 45.6056 1395.88 47.2852 1393.27 48.4221C1390.64 49.559 1387.8 50.1274 1384.81 50.1274C1381.82 50.1274 1379.01 49.559 1376.35 48.4221C1373.71 47.2852 1371.31 45.6056 1369.15 43.4093C1364.74 38.9134 1362.54 33.5905 1362.54 27.4409C1362.54 24.3919 1363.1 21.5238 1364.16 18.8365C1365.25 16.1751 1366.85 13.7204 1368.97 11.4983C1371.13 9.25032 1373.54 7.57079 1376.17 6.43388C1378.83 5.29697 1381.69 4.72852 1384.78 4.72852C1387.88 4.72852 1390.76 5.29697 1393.4 6.43388C1396.06 7.57079 1398.44 9.25032 1400.6 11.4983C1402.72 13.7204 1404.32 16.1751 1405.41 18.8365C1406.5 21.5238 1407.03 24.3919 1407.03 27.4409C1407.03 30.4899 1406.47 33.358 1405.36 36.0711C1404.24 38.7325 1402.62 41.1872 1400.44 43.4093L1400.47 43.3835Z" fill="#0A3B39" fill-opacity="0.5"/>
<path d="M1300.77 64.0798H1333.69V210.354H1297.38V196.349C1292.84 201.078 1287.7 204.85 1281.97 207.692C1273.54 211.878 1263.86 213.971 1252.96 213.971C1233.25 213.971 1216.37 206.504 1202.41 191.569C1188.48 176.686 1181.51 158.573 1181.51 137.204C1181.51 115.835 1188.48 97.4895 1202.41 82.6838C1209.38 75.2939 1217.08 69.7127 1225.52 66.0177C1233.96 62.2969 1243.11 60.4365 1252.96 60.4365C1263.83 60.4365 1273.51 62.5036 1281.95 66.6379C1287.67 69.4543 1292.82 73.1751 1297.38 77.8519V64.054H1300.77V64.0798ZM1229.14 166.686C1232.92 170.588 1237.15 173.507 1241.86 175.42C1246.58 177.357 1251.85 178.339 1257.6 178.339C1263.35 178.339 1268.62 177.357 1273.36 175.42C1278.07 173.482 1282.3 170.562 1286.08 166.686C1293.63 158.909 1297.4 149.064 1297.4 137.204C1297.4 125.344 1293.63 115.499 1286.1 107.748C1278.58 99.97 1269.1 96.0942 1257.65 96.0942C1246.2 96.0942 1236.72 99.97 1229.19 107.748C1225.42 111.623 1222.61 116.016 1220.73 120.874C1218.83 125.783 1217.89 131.235 1217.89 137.204C1217.89 143.173 1218.83 148.625 1220.73 153.534C1222.61 158.418 1225.44 162.784 1229.19 166.686H1229.14Z" fill="#0A3B39" fill-opacity="0.5"/>
<path d="M1163.13 206.556C1160.8 208.933 1158.21 210.716 1155.4 211.905C1152.56 213.093 1149.5 213.714 1146.25 213.714C1143.01 213.714 1139.92 213.119 1137.11 211.905C1134.27 210.716 1131.68 208.933 1129.38 206.556C1127.07 204.205 1125.32 201.569 1124.13 198.675C1122.97 195.781 1122.36 192.655 1122.36 189.348C1122.36 186.04 1122.94 182.914 1124.08 180.046C1125.22 177.177 1126.95 174.542 1129.2 172.165C1131.48 169.787 1134.07 167.979 1136.93 166.79C1139.79 165.602 1142.91 164.981 1146.25 164.981C1149.6 164.981 1152.59 165.576 1155.4 166.79C1158.24 167.979 1160.82 169.787 1163.13 172.139C1165.43 174.49 1167.18 177.126 1168.37 180.02C1169.54 182.914 1170.15 186.04 1170.15 189.348C1170.15 192.655 1169.56 195.807 1168.37 198.675C1167.21 201.543 1165.46 204.179 1163.13 206.556Z" fill="#0A3B39" fill-opacity="0.5"/>
<path d="M1103.2 210.382H1069.04H1067.32L1066.31 208.935L1035.01 165.241L1003.75 208.935L1002.71 210.382H1001.01H966.576H959.887L963.815 204.878L1013.6 135.32L966.551 69.6116L962.624 64.082H969.288H1003.47H1005.17L1006.21 65.529L1034.89 105.605L1063.57 65.529L1064.61 64.082H1066.31H1100.74H1107.43L1103.48 69.6116L1056.3 135.527L1105.94 204.878L1109.89 210.382H1103.2Z" fill="#0A3B39" fill-opacity="0.5"/>
<path d="M908.671 206.894V67.5703V64.082H912.066H941.585H944.981V67.5703V206.894V210.382H941.585H912.066H908.671V206.894Z" fill="#0A3B39" fill-opacity="0.5"/>
<path d="M942.484 43.3835C940.305 45.6056 937.898 47.2852 935.288 48.4221C932.653 49.559 929.815 50.1274 926.825 50.1274C923.835 50.1274 921.023 49.559 918.362 48.4221C915.727 47.2852 913.32 45.6056 911.166 43.4093C906.758 38.9134 904.553 33.5905 904.553 27.4409C904.553 24.3919 905.111 21.5238 906.175 18.8365C907.264 16.1751 908.861 13.7204 910.989 11.4983C913.143 9.25032 915.55 7.57079 918.185 6.43388C920.846 5.29697 923.709 4.72852 926.8 4.72852C929.891 4.72852 932.78 5.29697 935.415 6.43388C938.075 7.57079 940.457 9.25032 942.611 11.4983C944.739 13.7204 946.336 16.1751 947.425 18.8365C948.515 21.5238 949.047 24.3919 949.047 27.4409C949.047 30.4899 948.489 33.358 947.374 36.0711C946.26 38.7325 944.638 41.1872 942.459 43.4093L942.484 43.3835Z" fill="#0A3B39" fill-opacity="0.5"/>
<path d="M839.682 206.892V3.46241V0H843.077H872.596H875.991V3.46241V206.892V210.38H872.596H843.077H839.682V206.892Z" fill="#0A3B39" fill-opacity="0.5"/>
<path d="M773.772 64.0798H806.686V210.354H770.351V196.349C765.816 201.078 760.672 204.85 754.946 207.692C746.508 211.878 736.829 213.971 725.934 213.971C706.195 213.971 689.346 206.504 675.384 191.569C661.449 176.686 654.481 158.573 654.481 137.204C654.481 115.835 661.449 97.4895 675.384 82.6838C682.352 75.2939 690.055 69.7127 698.493 66.0177C706.93 62.2969 716.077 60.4365 725.934 60.4365C736.804 60.4365 746.483 62.5036 754.92 66.6379C760.647 69.4543 765.79 73.1751 770.351 77.8519V64.054H773.746L773.772 64.0798ZM702.141 166.686C705.917 170.588 710.148 173.507 714.861 175.42C719.574 177.357 724.844 178.339 730.596 178.339C736.348 178.339 741.618 177.357 746.356 175.42C751.069 173.482 755.3 170.562 759.076 166.686C766.626 158.909 770.402 149.064 770.402 137.204C770.402 125.344 766.627 115.499 759.101 107.748C751.576 99.97 742.099 96.0942 730.647 96.0942C719.194 96.0942 709.717 99.97 702.192 107.748C698.417 111.649 695.579 116.016 693.729 120.874C691.829 125.783 690.891 131.235 690.891 137.204C690.891 143.173 691.829 148.625 693.729 153.534C695.604 158.392 698.417 162.784 702.192 166.66L702.141 166.686Z" fill="#0A3B39" fill-opacity="0.5"/>
<path d="M605.996 78.4207C609.112 74.4415 612.761 71.16 616.967 68.5761C624.518 63.9251 633.766 61.5996 644.687 61.5996H648.082V101.366L644.459 101.133C639.163 100.797 634.248 101.236 629.712 102.503C625.202 103.769 620.996 105.836 617.145 108.678C609.695 114.208 605.996 123.535 605.996 136.687V210.38H569.661V64.0801H605.996V78.4207Z" fill="#0A3B39" fill-opacity="0.5"/>
<path d="M503.808 64.083H536.722V210.357H500.387V199.065C496.789 202.838 492.659 205.913 488.022 208.264C480.471 212.088 471.628 214 461.442 214C453.182 214 445.682 212.631 438.942 209.918C432.177 207.179 426.172 203.07 421.003 197.593C415.834 192.115 411.957 185.629 409.373 178.162C406.839 170.772 405.547 162.426 405.547 153.124V64.083H441.882V150.049C441.882 154.881 442.49 159.093 443.731 162.71C444.922 166.198 446.721 169.144 449.078 171.573C451.459 174.002 454.297 175.836 457.54 177.051C460.885 178.291 464.736 178.937 469.069 178.937C478.52 178.937 486.096 175.991 491.797 170.1C494.61 167.18 496.738 163.485 498.157 158.963C499.627 154.287 500.387 148.731 500.387 142.297V64.1347H503.782L503.808 64.083Z" fill="#0A3B39" fill-opacity="0.5"/>
<path d="M274.976 153.536C275.964 156.74 277.256 159.634 278.852 162.243C281.107 165.912 284.021 169.039 287.569 171.623C291.167 174.232 295.195 176.196 299.604 177.488C304.038 178.806 308.954 179.452 314.3 179.452C321.623 179.452 328.008 178.134 333.405 175.473C338.726 172.863 343.185 168.91 346.758 163.664L348.557 161.029L351.268 162.657L375.593 177.152L378.735 179.013L376.682 182.087C362.518 203.353 341.64 213.999 314.021 213.999C290.863 213.999 272.112 206.738 257.796 192.216C243.455 177.695 236.285 159.349 236.285 137.231C236.285 115.113 243.354 97.2584 257.492 82.5561C271.631 67.828 289.748 60.4639 311.842 60.4639C322.307 60.4639 331.885 62.3501 340.525 66.1226C349.191 69.8951 356.893 75.5279 363.659 83.0729C370.373 90.5662 375.415 98.8604 378.785 107.956C382.155 117.051 383.828 126.896 383.828 137.541C383.828 140.823 383.448 145.19 382.687 150.564L382.282 153.536H274.95H274.976ZM274.621 122.064H346.454C345.542 118.446 344.3 115.191 342.729 112.297C340.652 108.447 337.991 105.217 334.748 102.633C331.454 99.9974 327.881 98.0336 324.055 96.7158C320.204 95.398 316.049 94.7521 311.564 94.7521C301.429 94.7521 293.042 97.5427 286.403 103.15C283.084 105.94 280.373 109.248 278.244 113.046C276.724 115.785 275.508 118.782 274.596 122.09L274.621 122.064Z" fill="#0A3B39" fill-opacity="0.5"/>
<path d="M157.883 60.4639C166.143 60.4639 173.643 61.8333 180.383 64.5464C187.148 67.2853 193.128 71.3937 198.322 76.8716C203.491 82.3494 207.368 88.835 209.952 96.3024C212.511 103.692 213.778 112.038 213.778 121.34V210.355H177.469V124.389C177.469 119.557 176.861 115.346 175.619 111.728C174.428 108.24 172.629 105.294 170.273 102.865C165.484 97.9819 158.795 95.5272 150.281 95.5272C140.83 95.5272 133.254 98.4729 127.553 104.364C124.741 107.258 122.612 110.979 121.193 115.501C119.724 120.178 118.964 125.733 118.964 132.167V210.329H82.6543V64.0813H118.964V75.3987C122.562 71.6263 126.692 68.5514 131.329 66.2001C138.879 62.3759 147.722 60.4639 157.908 60.4639H157.883Z" fill="#0A3B39" fill-opacity="0.5"/>
</svg>
