<svg width="193" height="25" viewBox="0 0 193 25" fill="none" xmlns="http://www.w3.org/2000/svg">
<path d="M188.278 24.1699V7.89383V7.48633H188.674H192.123H192.519V7.89383V24.1699V24.5774H192.123H188.674H188.278V24.1699Z" fill="#29B8AD"/>
<path d="M192.228 5.0685C191.973 5.3281 191.692 5.5243 191.387 5.65712C191.079 5.78994 190.748 5.85635 190.398 5.85635C190.049 5.85635 189.721 5.78994 189.41 5.65712C189.102 5.5243 188.821 5.3281 188.569 5.07152C188.054 4.54629 187.797 3.92447 187.797 3.20605C187.797 2.84986 187.862 2.5148 187.986 2.20087C188.113 1.88996 188.3 1.60319 188.548 1.3436C188.8 1.08098 189.081 0.884776 189.389 0.751959C189.7 0.619143 190.034 0.552734 190.395 0.552734C190.757 0.552734 191.094 0.619143 191.402 0.751959C191.713 0.884776 191.991 1.08098 192.243 1.3436C192.491 1.60319 192.678 1.88996 192.805 2.20087C192.932 2.5148 192.994 2.84986 192.994 3.20605C192.994 3.56224 192.929 3.8973 192.799 4.21425C192.669 4.52516 192.479 4.81192 192.225 5.07152L192.228 5.0685Z" fill="#29B8AD"/>
<path d="M180.581 7.48616H184.426V24.5742H180.184V22.9382C179.655 23.4906 179.054 23.9313 178.385 24.2633C177.399 24.7523 176.268 24.9968 174.996 24.9968C172.693 24.9968 170.721 24.1245 169.09 22.3797C167.462 20.6411 166.648 18.525 166.648 16.0287C166.648 13.5323 167.462 11.3892 169.09 9.65953C169.904 8.79622 170.804 8.14421 171.79 7.71256C172.775 7.27788 173.844 7.06055 174.996 7.06055C176.265 7.06055 177.396 7.30203 178.382 7.785C179.051 8.11403 179.652 8.5487 180.184 9.09506V7.48315H180.581V7.48616ZM172.213 19.4729C172.654 19.9287 173.148 20.2698 173.699 20.4931C174.25 20.7195 174.865 20.8342 175.537 20.8342C176.209 20.8342 176.825 20.7195 177.378 20.4931C177.929 20.2668 178.423 19.9257 178.864 19.4729C179.746 18.5643 180.187 17.4142 180.187 16.0287C180.187 14.6432 179.746 13.4931 178.867 12.5875C177.988 11.6789 176.881 11.2262 175.543 11.2262C174.205 11.2262 173.098 11.6789 172.219 12.5875C171.778 13.0403 171.449 13.5535 171.23 14.121C171.008 14.6945 170.899 15.3314 170.899 16.0287C170.899 16.726 171.008 17.3629 171.23 17.9364C171.449 18.5069 171.781 19.0171 172.219 19.4729H172.213Z" fill="#29B8AD"/>
<path d="M164.501 24.1303C164.229 24.408 163.927 24.6163 163.598 24.7551C163.267 24.894 162.908 24.9664 162.53 24.9664C162.151 24.9664 161.79 24.897 161.461 24.7551C161.129 24.6163 160.828 24.408 160.558 24.1303C160.289 23.8556 160.085 23.5477 159.945 23.2096C159.809 22.8716 159.738 22.5063 159.738 22.1199C159.738 21.7336 159.806 21.3683 159.94 21.0333C160.073 20.6982 160.274 20.3903 160.537 20.1126C160.804 19.8349 161.106 19.6236 161.44 19.4847C161.775 19.3459 162.139 19.2734 162.53 19.2734C162.92 19.2734 163.27 19.3429 163.598 19.4847C163.93 19.6236 164.232 19.8349 164.501 20.1096C164.77 20.3843 164.975 20.6922 165.114 21.0302C165.25 21.3683 165.321 21.7336 165.321 22.1199C165.321 22.5063 165.253 22.8746 165.114 23.2096C164.978 23.5447 164.773 23.8526 164.501 24.1303Z" fill="#29B8AD"/>
<path d="M157.5 24.5774H153.51H153.308L153.19 24.4084L149.534 19.304L145.882 24.4084L145.76 24.5774H145.562H141.539H140.758L141.217 23.9345L147.033 15.8085L141.536 8.1323L141.078 7.48633H141.856H145.849H146.047L146.169 7.65537L149.52 12.3372L152.87 7.65537L152.992 7.48633H153.19H157.213H157.994L157.532 8.1323L152.021 15.8327L157.82 23.9345L158.281 24.5774H157.5Z" fill="#29B8AD"/>
<path d="M134.775 24.1699V7.89383V7.48633H135.171H138.62H139.016V7.89383V24.1699V24.5774H138.62H135.171H134.775V24.1699Z" fill="#29B8AD"/>
<path d="M138.725 5.0685C138.47 5.3281 138.189 5.5243 137.884 5.65712C137.576 5.78994 137.245 5.85635 136.895 5.85635C136.546 5.85635 136.218 5.78994 135.907 5.65712C135.599 5.5243 135.318 5.3281 135.066 5.07152C134.551 4.54629 134.294 3.92447 134.294 3.20605C134.294 2.84986 134.359 2.5148 134.483 2.20087C134.61 1.88996 134.797 1.60319 135.045 1.3436C135.297 1.08098 135.578 0.884776 135.886 0.751959C136.197 0.619143 136.531 0.552734 136.892 0.552734C137.254 0.552734 137.591 0.619143 137.899 0.751959C138.21 0.884776 138.488 1.08098 138.74 1.3436C138.988 1.60319 139.175 1.88996 139.302 2.20087C139.429 2.5148 139.491 2.84986 139.491 3.20605C139.491 3.56224 139.426 3.8973 139.296 4.21425C139.166 4.52516 138.976 4.81192 138.722 5.07152L138.725 5.0685Z" fill="#29B8AD"/>
<path d="M126.715 24.1696V0.404487V0H127.112H130.56H130.957V0.404487V24.1696V24.5771H130.56H127.112H126.715V24.1696Z" fill="#CBCBCB"/>
<path d="M119.015 7.48616H122.861V24.5742H118.616V22.9382C118.086 23.4906 117.485 23.9313 116.816 24.2633C115.83 24.7523 114.7 24.9968 113.427 24.9968C111.121 24.9968 109.153 24.1245 107.522 22.3797C105.894 20.6411 105.08 18.525 105.08 16.0287C105.08 13.5323 105.894 11.3892 107.522 9.65953C108.336 8.79622 109.235 8.14421 110.221 7.71256C111.207 7.27788 112.275 7.06055 113.427 7.06055C114.697 7.06055 115.827 7.30203 116.813 7.785C117.482 8.11403 118.083 8.5487 118.616 9.09506V7.48315H119.012L119.015 7.48616ZM110.647 19.4729C111.088 19.9287 111.583 20.2698 112.133 20.4931C112.684 20.7195 113.3 20.8342 113.971 20.8342C114.643 20.8342 115.259 20.7195 115.813 20.4931C116.363 20.2668 116.858 19.9257 117.299 19.4729C118.181 18.5643 118.622 17.4142 118.622 16.0287C118.622 14.6432 118.181 13.4931 117.302 12.5875C116.422 11.6789 115.315 11.2262 113.977 11.2262C112.639 11.2262 111.532 11.6789 110.653 12.5875C110.212 13.0433 109.881 13.5535 109.665 14.121C109.443 14.6945 109.333 15.3314 109.333 16.0287C109.333 16.726 109.443 17.3629 109.665 17.9364C109.884 18.5039 110.212 19.0171 110.653 19.4699L110.647 19.4729Z" fill="#CBCBCB"/>
<path d="M99.4154 9.16137C99.7795 8.69651 100.206 8.31316 100.697 8.0113C101.579 7.46796 102.66 7.19629 103.935 7.19629H104.332V11.8419L103.909 11.8147C103.29 11.7754 102.716 11.8268 102.186 11.9747C101.659 12.1226 101.168 12.3641 100.718 12.6961C99.8476 13.3421 99.4154 14.4318 99.4154 15.9682V24.5772H95.1707V7.48607H99.4154V9.16137Z" fill="#CBCBCB"/>
<path d="M87.4775 7.48633H91.3226V24.5744H87.0779V23.2553C86.6576 23.696 86.1751 24.0552 85.6334 24.3299C84.7513 24.7766 83.7183 25 82.5283 25C81.5634 25 80.6872 24.84 79.8998 24.5231C79.1095 24.2031 78.408 23.7232 77.8041 23.0832C77.2003 22.4433 76.7474 21.6856 76.4454 20.8133C76.1494 19.95 75.9985 18.975 75.9985 17.8883V7.48633H80.2432V17.5291C80.2432 18.0936 80.3142 18.5856 80.4593 19.0082C80.5984 19.4157 80.8085 19.7598 81.0838 20.0435C81.3621 20.3273 81.6936 20.5416 82.0725 20.6835C82.4632 20.8284 82.9131 20.9038 83.4193 20.9038C84.5234 20.9038 85.4085 20.5597 86.0745 19.8715C86.403 19.5304 86.6517 19.0987 86.8174 18.5705C86.9891 18.0241 87.0779 17.3751 87.0779 16.6235V7.49237H87.4746L87.4775 7.48633Z" fill="#CBCBCB"/>
<path d="M60.7448 17.9363C60.8603 18.3106 61.0112 18.6487 61.1977 18.9536C61.4612 19.3822 61.8016 19.7475 62.216 20.0493C62.6363 20.3542 63.1069 20.5836 63.622 20.7345C64.14 20.8885 64.7142 20.964 65.3388 20.964C66.1943 20.964 66.9402 20.81 67.5707 20.4991C68.1923 20.1942 68.7133 19.7324 69.1306 19.1196L69.3408 18.8117L69.6575 19.0019L72.4992 20.6953L72.8662 20.9126L72.6264 21.2718C70.9718 23.7561 68.5327 24.9998 65.3063 24.9998C62.6008 24.9998 60.4103 24.1516 58.7379 22.4551C57.0625 20.7587 56.2248 18.6155 56.2248 16.0316C56.2248 13.4477 57.0507 11.3619 58.7024 9.64435C60.3541 7.92377 62.4705 7.06348 65.0517 7.06348C66.2742 7.06348 67.3931 7.28383 68.4025 7.72454C69.4148 8.16525 70.3147 8.8233 71.105 9.70472C71.8894 10.5801 72.4784 11.5491 72.8721 12.6116C73.2658 13.6741 73.4612 14.8242 73.4612 16.0678C73.4612 16.4512 73.4168 16.9613 73.328 17.5892L73.2806 17.9363H60.7419H60.7448ZM60.7034 14.2597H69.0951C68.9885 13.8371 68.8435 13.4568 68.66 13.1187C68.4173 12.6689 68.1065 12.2916 67.7276 11.9898C67.3428 11.6819 66.9254 11.4525 66.4784 11.2985C66.0285 11.1446 65.5431 11.0691 65.0191 11.0691C63.8351 11.0691 62.8553 11.3951 62.0798 12.0501C61.692 12.3761 61.3753 12.7625 61.1267 13.2062C60.9491 13.5262 60.807 13.8764 60.7004 14.2627L60.7034 14.2597Z" fill="#CBCBCB"/>
<path d="M47.0657 7.06348C48.0307 7.06348 48.9069 7.22346 49.6943 7.54041C50.4846 7.86038 51.1832 8.34033 51.79 8.98026C52.3938 9.6202 52.8467 10.3779 53.1486 11.2502C53.4476 12.1135 53.5956 13.0885 53.5956 14.1752V24.5742H49.3539V14.5314C49.3539 13.9669 49.2828 13.4749 49.1378 13.0523C48.9987 12.6448 48.7885 12.3007 48.5132 12.0169C47.9538 11.4464 47.1723 11.1597 46.1777 11.1597C45.0736 11.1597 44.1886 11.5038 43.5226 12.192C43.194 12.5301 42.9454 12.9648 42.7796 13.493C42.6079 14.0394 42.5191 14.6884 42.5191 15.44V24.5711H38.2774V7.48608H42.5191V8.80821C42.9394 8.3675 43.4219 8.00829 43.9636 7.7336C44.8457 7.28685 45.8788 7.06348 47.0687 7.06348H47.0657Z" fill="#CBCBCB"/>
<path fill-rule="evenodd" clip-rule="evenodd" d="M5.47312 6.72798C2.13419 5.0406 0.124322 5.81637 0 8.1618V19.8165C0 22.5543 2.19043 24.788 4.87519 24.788H5.47608V6.72798H5.47312Z" fill="#29B8AD"/>
<path fill-rule="evenodd" clip-rule="evenodd" d="M0.00021133 8.1629C0.124533 5.81748 2.1344 5.04171 5.47333 6.72909L15.0491 10.8887V7.96066C15.0491 5.98048 13.9006 4.31726 12.1216 3.5445L5.65686 0.740262C2.46889 -0.639221 -0.0264291 0.794596 0.00021133 3.79505V8.1629Z" fill="#43D0BB"/>
<path fill-rule="evenodd" clip-rule="evenodd" d="M0 8.1618C0.535768 6.14238 2.35916 5.97938 5.47312 7.67581V6.72798C2.13419 5.0406 0.124322 5.81637 0 8.1618Z" fill="#28ABA0"/>
<path fill-rule="evenodd" clip-rule="evenodd" d="M19.7632 18.2709C23.1021 19.9583 25.112 19.1855 25.2363 16.8371V5.18242C25.2363 2.44458 23.0459 0.213867 20.3641 0.213867H19.7632V18.2739V18.2709Z" fill="#29B8AD"/>
<path fill-rule="evenodd" clip-rule="evenodd" d="M25.2367 16.8381C25.1124 19.1835 23.1025 19.9593 19.7636 18.2719L10.1879 14.1123V17.0403C10.1879 19.0205 11.3364 20.6837 13.1154 21.4565L19.583 24.2577C22.7681 25.6372 25.2634 24.2034 25.2367 21.2029V16.835V16.8381Z" fill="#43D0BB"/>
<path fill-rule="evenodd" clip-rule="evenodd" d="M25.2363 16.8379C24.7006 18.8573 22.8772 19.0203 19.7632 17.3239V18.2717C23.1021 19.9591 25.112 19.1863 25.2363 16.8379Z" fill="#28ABA0"/>
</svg>
