<svg width="109" height="117" viewBox="0 0 109 117" fill="none" xmlns="http://www.w3.org/2000/svg">
<path d="M102.32 27.1094C103.021 27.2737 104.604 27.6578 105.009 28.2743C105.167 28.5168 105.133 28.7437 105.067 29.0119C104.935 29.5436 104.596 30.0311 104.877 30.5787C104.993 30.8053 105.164 30.8668 105.397 30.9248C106.153 31.1132 107.616 30.8877 108.113 31.5889C108.301 31.853 108.273 32.1804 108.201 32.478C108.051 33.0834 107.478 34.2999 107.067 34.7513C107.575 35.133 108.078 35.628 108.201 36.2813C108.241 36.4959 108.222 36.7082 108.088 36.8864C107.955 37.0651 107.898 37.0919 107.688 37.1617C107.006 37.0626 106.583 36.3969 105.877 36.6613C105.708 36.8952 105.595 37.2907 105.378 37.4523C104.209 38.0602 102.631 38.85 102.194 40.2027C101.784 41.4776 102.222 42.5293 102.117 43.7392C102.113 43.9809 101.95 44.151 101.816 44.3394C101.742 44.7219 101.901 45.0179 102.018 45.3722C102.386 46.4977 101.076 47.1021 100.55 48.0592C100.531 48.0949 100.51 48.1297 100.492 48.1659C100.105 48.9213 100.022 50.4956 99.9834 51.3406C99.9649 51.7434 100.09 52.0707 99.9253 52.4561C99.264 52.4358 97.7605 52.1977 97.2496 52.6963C97.1058 52.8368 97.0305 52.9956 97.0477 53.2035C97.0807 53.5818 97.3671 53.8709 97.3711 54.2751C97.2048 54.7073 96.4761 55.129 96.0656 55.3441C96.2477 55.7224 96.5461 58.1684 96.4193 58.4999C96.3599 58.6535 96.2688 58.7079 96.1474 58.8124C95.7897 58.9104 95.5111 58.8092 95.1956 58.6324C94.265 58.1087 93.832 57.3203 93.568 56.3164C93.3344 55.4271 93.1021 54.4624 93.1694 53.5396C93.2037 53.0704 93.5126 52.4382 93.4281 52.0025C93.3608 51.6547 93.0638 51.3161 92.7681 51.1297C92.5252 50.9767 92.4038 50.9907 92.1411 51.0381C91.0428 51.8557 91.4203 54.5618 90.3524 54.9343C89.9855 54.8075 89.8693 54.5275 89.5908 54.2891C89.2555 54.0028 88.7882 53.8857 88.4476 53.6052C88.346 53.5214 88.2813 53.4179 88.2245 53.3004C87.9236 52.6788 87.7229 51.8826 87.9751 51.2137C88.5928 49.5752 92.5912 49.214 91.7226 46.9765C91.6144 46.6972 91.4283 46.5478 91.1537 46.4436C89.7321 45.9051 82.2641 46.8739 81.7556 45.8027C81.5039 45.2724 81.6066 44.4692 81.5236 43.8878C81.0509 43.8695 80.5412 43.8717 80.0784 43.7713C79.1846 43.5772 78.297 43.1709 77.3764 43.1687C77.2466 43.1683 77.1177 43.1664 76.9879 43.1706C76.5052 43.1886 76.032 43.1868 75.5497 43.1628C76.6022 40.0806 74.0929 39.5124 75.5852 35.4516C75.7176 35.0915 75.972 34.4603 76.3442 34.2933C76.5299 34.21 76.7735 34.1871 76.965 34.2616C77.541 34.4853 77.834 35.3811 78.0312 35.9185C78.5839 37.4248 78.4535 38.5022 78.6034 40.017C79.1872 40.2536 79.6543 39.7425 80.2195 39.7733C80.9563 39.8135 81.5455 40.4432 82.2327 40.632C82.8338 40.7971 87.3388 39.8084 87.9553 39.5422C88.4107 39.3451 89.0113 38.7198 89.1578 38.2503C89.2238 38.0371 89.204 37.8201 89.0984 37.6228C88.7802 37.031 87.6767 36.5955 87.8971 35.8215C88.008 35.4318 88.4014 35.002 88.7538 34.8156C89.5762 34.3811 90.4963 35.0433 91.2909 34.6461C92.6215 33.9803 93.7449 31.8808 94.9104 30.824C95.5176 30.2734 97.3261 29.1605 97.6759 28.6278C99.4131 28.617 101.021 28.7301 102.251 27.2413C102.293 27.1898 102.299 27.1651 102.32 27.1094Z" fill="#136D6A"/>
<path d="M20.4547 0.585883C20.9584 0.411026 21.4546 0.195348 21.9512 0C22.2596 0.484505 22.5582 0.974904 22.8471 1.47125C23.5875 1.92975 24.5651 1.97019 25.2465 2.52131C25.5625 2.77678 25.7379 3.08805 25.9212 3.44209C26.7857 5.11274 27.1479 5.13215 28.8631 5.80011C30.4292 6.40995 31.257 5.82401 33.0108 6.57697C34.4953 6.10825 34.8849 5.06727 36.1221 4.50107C37.517 3.86269 38.4199 4.48745 39.8336 3.33969C40.5575 3.64376 41.2479 4.0091 41.995 4.26187C42.4726 4.42343 43.861 4.73746 44.2051 5.01796C44.2536 5.05743 44.2862 5.11329 44.3267 5.16092C44.3284 5.21915 44.3288 5.27744 44.3279 5.33567C44.3023 6.63406 43.0063 7.40232 42.4572 8.4826C41.9449 9.49059 41.6021 11.7881 41.1246 12.4267C40.766 12.9063 39.9822 12.3121 39.464 12.3911C39.2475 12.5677 39.1689 12.6534 39.1059 12.9426C38.8925 13.9211 40.0064 15.2608 40.6934 15.8388C41.1366 16.2119 41.9279 16.6224 42.2184 17.0999C42.3829 17.37 42.3249 17.9446 42.2581 18.2452C42.1445 18.7571 41.8568 19.2505 41.3975 19.5229C40.1633 20.2554 39.4476 19.1558 38.36 18.8901C38.2585 18.8653 38.223 18.9205 38.1377 18.9722C37.8488 20.5066 40.0863 21.8223 40.1949 23.3564C40.2296 23.8466 39.9194 24.3442 39.851 24.8311C39.6919 25.9649 41.5834 26.0044 42.2767 26.5645C42.7863 26.9762 43.0548 27.6403 43.4335 28.1649C44.0649 29.0394 44.9272 29.1822 45.9181 29.3431C46.2163 29.6799 46.4813 30.0597 46.756 30.4166C47.6527 30.654 48.7186 30.4728 49.5232 30.9489C50.1179 31.7908 47.713 32.8497 47.6969 34.4681C47.6902 35.1358 48.0154 35.7729 48.4733 36.2427C49.5684 37.3664 53.7312 38.9073 55.3847 39.369C56.0027 39.5415 56.6778 39.5047 57.2759 39.7482C58.8078 40.3722 59.5287 41.4474 61.4425 41.8464C62.9972 42.1706 64.4617 41.5367 65.9939 41.7076C67.3062 41.8538 68.1956 42.833 69.4289 43.1601C70.5135 43.4479 74.0799 43.1399 75.5498 43.1642C76.0321 43.1882 76.5054 43.19 76.9879 43.172C77.0002 44.4104 78.4312 44.4104 78.698 45.445C78.5799 46.0188 78.0207 46.3245 77.5736 46.6351C77.0666 46.6325 75.902 46.4716 75.4979 46.7938C75.3752 46.8917 75.4118 46.9606 75.4009 47.107C75.8427 48.1312 77.4005 48.6046 78.2082 49.3656C78.61 50.3587 76.7796 51.7164 76.5914 52.732C76.2177 54.7497 78.2694 54.1463 78.8724 55.0547C78.9661 55.8601 78.5229 56.3541 78.1066 56.9851C78.6611 57.8991 79.426 58.6006 80.0536 59.4538C80.1039 60.2323 79.951 60.9626 79.9607 61.7308C79.9714 62.5854 80.3408 62.9339 80.9176 63.5046C80.8813 63.5686 80.8452 63.6329 80.8069 63.6958C80.5724 64.0813 80.1996 64.8091 79.7138 64.8979C79.1935 64.9931 78.5999 64.496 78.1773 64.2343C78.1616 64.2424 78.1462 64.2508 78.1303 64.2585C77.3576 64.6257 76.6698 65.6529 75.8875 65.8098C75.6087 65.5106 75.6887 64.965 75.4333 64.5969C75.2389 64.4716 75.1915 64.4405 74.9615 64.4436C74.4166 64.4508 73.2485 64.8697 72.8918 65.2708C72.2687 65.9717 73.4422 66.9236 73.4453 67.6966C73.4478 68.3258 72.7894 68.7499 72.3287 69.0689C71.5477 69.6096 70.654 70.0927 69.715 70.2836C68.9372 70.4417 67.8161 70.258 67.1461 70.6959C66.0358 71.4213 65.6116 73.8099 64.3033 74.9203C63.4 75.6871 61.4784 77.1823 60.4125 77.6088C59.715 77.8879 58.8616 77.5123 58.2322 78.0295C57.192 78.8841 57.5785 80.3166 56.236 81.1074C54.9647 81.8561 52.4499 82.167 51.5487 82.9363C50.9241 83.4694 51.5451 84.5309 50.9756 85.0805C50.418 85.6188 50.0699 84.669 49.4699 84.6499C48.3888 85.0794 49.1997 86.1417 48.835 86.8821C48.5029 86.9188 48.2992 86.6804 47.9865 86.5912C47.7666 86.5284 47.7398 86.5584 47.5341 86.6627C47.4388 86.8066 47.3745 86.9121 47.3732 87.0888C47.367 87.9526 47.9509 90.4243 48.5082 91.1074C48.8145 91.4827 49.2924 91.7546 49.6369 92.1047C49.9605 92.4336 50.3691 92.8313 50.3439 93.3258C50.3246 93.702 50.2132 94.1038 49.9985 94.4146C49.6062 94.9823 48.8784 95.2402 48.4611 95.8055C47.7171 96.8133 47.6254 97.9781 46.6635 98.9049C46.6941 98.9609 46.7239 99.0175 46.7527 99.0745C47.3569 100.252 48.6512 103.334 47.83 104.513C47.1886 105.433 46.1422 105.387 45.8476 106.726C45.5607 108.029 46.1527 109.601 45.7139 110.832C45.4097 111.686 43.6854 111.113 42.9777 111.518C42.2509 111.934 42.7763 113.15 42.561 113.81C42.2876 114.648 40.5561 116.147 39.7766 116.588C39.5434 116.721 39.4847 116.751 39.2304 116.682C39.1313 116.276 39.4577 115.866 39.4618 115.421C39.1182 114.847 37.2966 114.476 36.5674 113.767C33.8391 111.113 34.209 107.382 32.6896 104.361C31.7697 102.532 30.003 101.165 28.9644 99.3595C27.3545 96.561 26.9421 93.2714 25.4967 90.4093C24.3414 88.122 22.337 86.3766 21.0248 84.1717C20.0542 82.5408 19.5749 80.8835 18.9287 79.1193C18.5255 78.0185 18.0184 76.959 17.6293 75.8515C17.1484 74.4825 16.8784 73.0302 16.5051 71.6286C16.2305 70.5977 15.8399 69.5944 15.6188 68.5504C15.4268 67.644 15.3871 66.7172 15.218 65.8091C15.0607 64.9634 14.7455 64.0869 14.7009 63.2278C14.6691 62.6165 15.1866 62.1488 15.1791 61.5414C14.9794 61.3778 14.8254 61.3553 14.5639 61.346C12.934 61.2883 14.0408 64.655 12.2041 66.2169C11.4622 66.8478 10.5808 66.9664 9.63636 66.8933C7.64735 66.7393 5.59644 64.5698 4.36098 63.0959C4.05393 62.7296 3.68999 62.3163 3.73503 61.8106C4.17423 61.2657 4.92242 61.4832 5.54004 61.3261C6.25883 61.1434 9.12363 59.6278 9.42896 59.1114C9.44112 58.8584 9.43555 58.8629 9.28189 58.66C8.06048 58.0047 6.55853 59.7861 5.04343 59.8151C3.99375 59.8352 3.11541 59.3094 2.38754 58.5911C1.86957 58.0801 0.0059475 56.1077 0 55.4407C0.0732624 55.2199 0.161285 55.0588 0.348632 54.9129C0.988475 54.4142 2.58711 54.8946 3.3406 54.9737C3.75958 54.6126 4.17617 54.2731 4.63343 53.9613C6.38486 53.8013 9.25205 54.891 10.7302 54.0382C10.9854 53.891 11.0227 53.7796 11.1072 53.5181C11.0638 53.2635 10.9855 53.1077 10.8291 52.9011C10.4081 52.3454 9.76634 51.975 9.32006 51.4305C8.35857 50.2575 7.94116 48.9362 6.71316 47.9588C6.80016 47.7731 6.88505 47.5856 6.95593 47.3931C7.79123 45.1233 4.75162 44.8357 4.04462 43.2346C3.82614 42.7396 3.87696 42.2113 4.08491 41.7231C4.41305 40.9525 6.26083 39.0488 7.06223 38.7745C7.26444 38.7052 7.50878 38.7108 7.69899 38.8162C8.30936 39.154 7.89093 39.6176 7.99452 40.1341C8.07476 40.2084 8.14565 40.2754 8.24573 40.3229C8.60041 40.4916 9.10016 40.5137 9.48627 40.5305C11.5657 40.6205 11.2098 39.2522 12.5898 38.5673C13.06 38.3341 13.6828 38.5156 14.1815 38.3266C14.4642 38.2194 14.5907 38.0358 14.7081 37.7692C14.6455 37.4163 14.3914 37.1982 14.1568 36.9436C16.1567 35.7276 18.3689 33.9804 18.9114 31.5744C19.0625 30.9047 18.9835 30.0803 19.2846 29.4604C19.7266 28.5502 20.628 29.3389 21.3293 29.0164C22.2474 28.5942 22.1178 26.2571 22.2668 25.3543C22.3409 24.9057 22.4857 24.4847 22.6517 24.063C23.1467 24.0023 23.679 23.9603 24.15 23.7864C24.5607 23.6349 24.9151 23.3671 25.0806 22.9508C25.2788 22.4519 25.3124 21.6113 25.0645 21.1273C24.7202 20.4552 23.268 21.194 22.2343 20.9121C20.921 20.5539 19.6434 19.3257 18.9967 18.1629C19.0035 16.2616 18.5475 14.5134 18.381 12.6396C19.1477 11.6785 20.6133 11.2751 21.2349 10.2546C21.3541 10.059 21.3863 9.83971 21.329 9.61754C21.0561 8.55732 18.7727 8.39771 17.9502 7.83946C17.4949 7.53046 17.6468 6.721 17.5649 6.23217C17.4094 6.02309 17.3984 5.99206 17.1399 5.90322C16.7856 5.98205 16.4753 6.382 16.1948 6.61049L16.0832 6.54501C15.8527 6.10398 16.1211 5.62969 15.9821 5.18985C15.9222 5.00017 15.8335 5.00174 15.665 4.934C15.3454 5.0078 15.0949 5.45873 14.8177 5.66267C14.5839 5.64802 14.572 5.60828 14.4027 5.45884C14.3405 5.29079 14.3018 5.13902 14.335 4.95908C14.5812 3.62079 15.9226 2.17798 17.0313 1.4692L18.6308 1.47087C18.7881 1.03752 18.9644 0.611295 19.1367 0.183778L20.4547 0.585883Z" fill="#136D6A"/>
</svg>
