<svg width="199" height="28" viewBox="0 0 199 28" fill="none" xmlns="http://www.w3.org/2000/svg">
<path d="M194.137 27.0072V8.82057V8.36523H194.546H198.101H198.51V8.82057V27.0072V27.4625H198.101H194.546H194.137V27.0072Z" fill="#29B8AD"/>
<path d="M198.21 5.66303C197.947 5.9531 197.657 6.17234 197.343 6.32074C197.025 6.46915 196.684 6.54335 196.323 6.54335C195.963 6.54335 195.625 6.46915 195.304 6.32074C194.987 6.17234 194.697 5.9531 194.437 5.6664C193.906 5.07952 193.641 4.38471 193.641 3.58196C193.641 3.18396 193.708 2.80957 193.836 2.45879C193.967 2.11138 194.159 1.79095 194.416 1.50088C194.675 1.20744 194.965 0.988205 195.283 0.839798C195.603 0.691391 195.948 0.617188 196.32 0.617188C196.693 0.617188 197.041 0.691391 197.358 0.839798C197.679 0.988205 197.966 1.20744 198.225 1.50088C198.481 1.79095 198.674 2.11138 198.805 2.45879C198.936 2.80957 199 3.18396 199 3.58196C199 3.97996 198.933 4.35435 198.799 4.7085C198.664 5.05591 198.469 5.37633 198.207 5.6664L198.21 5.66303Z" fill="#29B8AD"/>
<path d="M186.2 8.36425H190.165V27.4582H185.791V25.6301C185.245 26.2473 184.626 26.7398 183.936 27.1108C182.919 27.6572 181.753 27.9304 180.441 27.9304C178.066 27.9304 176.034 26.9556 174.352 25.0061C172.673 23.0633 171.834 20.6989 171.834 17.9095C171.834 15.1201 172.673 12.7254 174.352 10.7927C175.191 9.82808 176.119 9.09954 177.136 8.61722C178.152 8.13152 179.254 7.88867 180.441 7.88867C181.75 7.88867 182.916 8.1585 183.933 8.69817C184.623 9.06581 185.242 9.55151 185.791 10.162V8.36088H186.2V8.36425ZM177.572 21.758C178.027 22.2673 178.537 22.6484 179.104 22.898C179.672 23.151 180.307 23.2792 181 23.2792C181.692 23.2792 182.327 23.151 182.898 22.898C183.466 22.6451 183.975 22.2639 184.43 21.758C185.34 20.7428 185.795 19.4577 185.795 17.9095C185.795 16.3614 185.34 15.0763 184.433 14.0644C183.527 13.0492 182.385 12.5433 181.006 12.5433C179.626 12.5433 178.485 13.0492 177.578 14.0644C177.123 14.5704 176.785 15.1438 176.559 15.7779C176.33 16.4187 176.217 17.1304 176.217 17.9095C176.217 18.6887 176.33 19.4003 176.559 20.0412C176.785 20.6787 177.126 21.2487 177.578 21.758H177.572Z" fill="#29B8AD"/>
<path d="M169.62 26.9631C169.339 27.2734 169.028 27.5061 168.689 27.6613C168.347 27.8165 167.978 27.8974 167.587 27.8974C167.196 27.8974 166.824 27.8198 166.485 27.6613C166.143 27.5061 165.832 27.2734 165.554 26.9631C165.277 26.6562 165.066 26.3121 164.923 25.9344C164.782 25.5566 164.709 25.1485 164.709 24.7168C164.709 24.285 164.779 23.8769 164.917 23.5025C165.054 23.1281 165.261 22.7841 165.533 22.4738C165.808 22.1635 166.119 21.9274 166.464 21.7722C166.809 21.6171 167.184 21.5361 167.587 21.5361C167.99 21.5361 168.35 21.6137 168.689 21.7722C169.031 21.9274 169.342 22.1635 169.62 22.4704C169.898 22.7774 170.108 23.1214 170.252 23.4992C170.392 23.8769 170.465 24.285 170.465 24.7168C170.465 25.1485 170.395 25.56 170.252 25.9344C170.111 26.3088 169.901 26.6528 169.62 26.9631Z" fill="#29B8AD"/>
<path d="M162.402 27.4625H158.287H158.08L157.958 27.2737L154.188 21.5701L150.422 27.2737L150.297 27.4625H150.092H145.944H145.139L145.612 26.7441L151.609 17.6643L145.941 9.08703L145.468 8.36523H146.271H150.388H150.593L150.718 8.55412L154.173 13.7855L157.628 8.55412L157.753 8.36523H157.958H162.106H162.911L162.435 9.08703L156.752 17.6913L162.731 26.7441L163.207 27.4625H162.402Z" fill="#29B8AD"/>
<path d="M138.969 27.0072V8.82057V8.36523H139.378H142.933H143.342V8.82057V27.0072V27.4625H142.933H139.378H138.969V27.0072Z" fill="#29B8AD"/>
<path d="M143.042 5.66303C142.779 5.9531 142.489 6.17234 142.175 6.32074C141.857 6.46915 141.516 6.54335 141.156 6.54335C140.795 6.54335 140.457 6.46915 140.136 6.32074C139.819 6.17234 139.529 5.9531 139.269 5.6664C138.738 5.07952 138.473 4.38471 138.473 3.58196C138.473 3.18396 138.54 2.80957 138.668 2.45879C138.799 2.11138 138.992 1.79095 139.248 1.50088C139.507 1.20744 139.797 0.988205 140.115 0.839798C140.435 0.691391 140.78 0.617188 141.152 0.617188C141.525 0.617188 141.873 0.691391 142.19 0.839798C142.511 0.988205 142.798 1.20744 143.057 1.50088C143.313 1.79095 143.506 2.11138 143.637 2.45879C143.768 2.80957 143.832 3.18396 143.832 3.58196C143.832 3.97996 143.765 4.35435 143.631 4.7085C143.497 5.05591 143.301 5.37633 143.039 5.6664L143.042 5.66303Z" fill="#29B8AD"/>
<path d="M130.658 27.0067V0.451967V0H131.067H134.623H135.032V0.451967V27.0067V27.4621H134.623H131.067H130.658V27.0067Z" fill="#030836"/>
<path d="M122.719 8.36425H126.684V27.4582H122.307V25.6301C121.761 26.2473 121.141 26.7398 120.451 27.1108C119.435 27.6572 118.269 27.9304 116.957 27.9304C114.579 27.9304 112.549 26.9556 110.868 25.0061C109.189 23.0633 108.35 20.6989 108.35 17.9095C108.35 15.1201 109.189 12.7254 110.868 10.7927C111.707 9.82808 112.635 9.09954 113.651 8.61722C114.668 8.13152 115.769 7.88867 116.957 7.88867C118.266 7.88867 119.432 8.1585 120.448 8.69817C121.138 9.06581 121.758 9.55151 122.307 10.162V8.36088H122.716L122.719 8.36425ZM114.091 21.758C114.545 22.2673 115.055 22.6484 115.623 22.898C116.191 23.151 116.825 23.2792 117.518 23.2792C118.211 23.2792 118.846 23.151 119.417 22.898C119.984 22.6451 120.494 22.2639 120.949 21.758C121.858 20.7428 122.313 19.4577 122.313 17.9095C122.313 16.3614 121.858 15.0763 120.952 14.0644C120.045 13.0492 118.904 12.5433 117.524 12.5433C116.145 12.5433 115.003 13.0492 114.097 14.0644C113.642 14.5737 113.3 15.1438 113.077 15.7779C112.848 16.4187 112.736 17.1304 112.736 17.9095C112.736 18.6887 112.848 19.4003 113.077 20.0412C113.303 20.6753 113.642 21.2487 114.097 21.7546L114.091 21.758Z" fill="#030836"/>
<path d="M102.51 10.2368C102.885 9.71734 103.325 9.28899 103.831 8.9517C104.741 8.34458 105.855 8.04102 107.17 8.04102H107.579V13.2319L107.143 13.2015C106.505 13.1577 105.913 13.215 105.366 13.3803C104.823 13.5456 104.316 13.8154 103.853 14.1864C102.955 14.9082 102.51 16.1258 102.51 17.8426V27.4621H98.1328V8.36481H102.51V10.2368Z" fill="#030836"/>
<path d="M90.1995 8.36523H94.1643V27.4592H89.7875V25.9852C89.3541 26.4777 88.8566 26.879 88.298 27.186C87.3885 27.6851 86.3233 27.9347 85.0963 27.9347C84.1013 27.9347 83.1979 27.756 82.386 27.4018C81.5711 27.0443 80.8477 26.508 80.2251 25.793C79.6025 25.0779 79.1355 24.2313 78.8242 23.2565C78.5189 22.2919 78.3633 21.2025 78.3633 19.9882V8.36523H82.7401V19.5868C82.7401 20.2176 82.8133 20.7674 82.9629 21.2396C83.1063 21.6949 83.323 22.0794 83.6069 22.3965C83.8938 22.7135 84.2356 22.953 84.6263 23.1115C85.0292 23.2734 85.4931 23.3577 86.015 23.3577C87.1535 23.3577 88.0661 22.9732 88.7528 22.2042C89.0916 21.8231 89.348 21.3407 89.5189 20.7505C89.6959 20.14 89.7875 19.4148 89.7875 18.575V8.37198H90.1965L90.1995 8.36523Z" fill="#030836"/>
<path d="M62.6353 20.0417C62.7543 20.46 62.9099 20.8377 63.1022 21.1784C63.3739 21.6573 63.7249 22.0655 64.1522 22.4028C64.5856 22.7434 65.0709 22.9998 65.6019 23.1684C66.1361 23.3404 66.7282 23.4247 67.3722 23.4247C68.2543 23.4247 69.0234 23.2527 69.6735 22.9053C70.3145 22.5647 70.8517 22.0486 71.282 21.3639L71.4987 21.0199L71.8253 21.2324L74.7554 23.1245L75.1338 23.3674L74.8866 23.7688C73.1804 26.5447 70.6655 27.9343 67.3386 27.9343C64.5489 27.9343 62.2904 26.9865 60.5659 25.0909C58.8384 23.1954 57.9746 20.8006 57.9746 17.9134C57.9746 15.0262 58.8262 12.6956 60.5293 10.7764C62.2324 8.85385 64.4147 7.89258 67.0761 7.89258C68.3367 7.89258 69.4904 8.1388 70.5312 8.63124C71.575 9.12368 72.5029 9.85897 73.3178 10.8439C74.1266 11.822 74.734 12.9047 75.1399 14.0919C75.5459 15.2792 75.7473 16.5643 75.7473 17.9539C75.7473 18.3823 75.7015 18.9523 75.61 19.6538L75.5611 20.0417H62.6322H62.6353ZM62.5925 15.9335H71.2454C71.1355 15.4613 70.9859 15.0364 70.7967 14.6586C70.5464 14.156 70.226 13.7344 69.8353 13.3971C69.4385 13.0531 69.0082 12.7968 68.5473 12.6247C68.0833 12.4527 67.5828 12.3684 67.0426 12.3684C65.8217 12.3684 64.8114 12.7327 64.0118 13.4646C63.6119 13.8289 63.2854 14.2606 63.029 14.7564C62.8458 15.1139 62.6993 15.5052 62.5895 15.9369L62.5925 15.9335Z" fill="#030836"/>
<path d="M48.5306 7.89258C49.5256 7.89258 50.429 8.07134 51.2409 8.42549C52.0558 8.78302 52.7762 9.31931 53.4018 10.0344C54.0245 10.7494 54.4915 11.596 54.8028 12.5708C55.111 13.5354 55.2637 14.6249 55.2637 15.8391V27.4587H50.8899V16.2371C50.8899 15.6064 50.8167 15.0566 50.6671 14.5844C50.5237 14.1291 50.307 13.7445 50.0231 13.4275C49.4462 12.79 48.6405 12.4696 47.615 12.4696C46.4765 12.4696 45.5639 12.8541 44.8772 13.6231C44.5384 14.0009 44.282 14.4866 44.1111 15.0768C43.9341 15.6873 43.8425 16.4125 43.8425 17.2523V27.4553H39.4688V8.36478H43.8425V9.84211C44.2759 9.34967 44.7734 8.94829 45.3319 8.64136C46.2415 8.14217 47.3067 7.89258 48.5337 7.89258H48.5306Z" fill="#030836"/>
<path fill-rule="evenodd" clip-rule="evenodd" d="M5.64344 7.518C2.2006 5.63256 0.128191 6.49939 0 9.12013V22.1429C0 25.2021 2.25859 27.698 5.0269 27.698H5.64649V7.518H5.64344Z" fill="#29B8AD"/>
<path fill-rule="evenodd" clip-rule="evenodd" d="M0.000217906 9.12052C0.128408 6.49978 2.20082 5.63295 5.64365 7.51839L15.5174 12.1662V8.89453C15.5174 6.68192 14.3331 4.82345 12.4988 3.95999L5.83289 0.82658C2.54572 -0.714831 -0.0272515 0.887292 0.000217906 4.23994V9.12052Z" fill="#43D0BB"/>
<path fill-rule="evenodd" clip-rule="evenodd" d="M0 9.12013C0.55244 6.86366 2.43257 6.68153 5.64344 8.57709V7.518C2.2006 5.63256 0.128191 6.49939 0 9.12013Z" fill="#29B8AD"/>
<path fill-rule="evenodd" clip-rule="evenodd" d="M20.3789 20.4159C23.8217 22.3013 25.8942 21.4379 26.0223 18.8138V5.79104C26.0223 2.73182 23.7637 0.239258 20.9985 0.239258H20.3789V20.4193V20.4159Z" fill="#29B8AD"/>
<path fill-rule="evenodd" clip-rule="evenodd" d="M26.023 18.8143C25.8948 21.435 23.8224 22.3018 20.3796 20.4164L10.5059 15.7686V19.0403C10.5059 21.2529 11.6901 23.1113 13.5244 23.9748L20.1934 27.1048C23.4775 28.6462 26.0505 27.0441 26.023 23.6915V18.8109V18.8143Z" fill="#43D0BB"/>
<path fill-rule="evenodd" clip-rule="evenodd" d="M26.0223 18.8145C25.4699 21.0709 23.5898 21.2531 20.3789 19.3575V20.4166C23.8217 22.302 25.8942 21.4386 26.0223 18.8145Z" fill="#29B8AD"/>
</svg>
