<svg width="195" height="24" viewBox="0 0 195 24" fill="none" xmlns="http://www.w3.org/2000/svg">
<path d="M176.576 22.6677V7.40318V7.021H176.948H180.182H180.554V7.40318V22.6677V23.0499H180.182H176.948H176.576V22.6677Z" fill="#29B8AD"/>
<path d="M180.281 4.75318C180.042 4.99664 179.778 5.18065 179.492 5.30522C179.204 5.42978 178.893 5.49206 178.565 5.49206C178.238 5.49206 177.929 5.42978 177.638 5.30522C177.349 5.18065 177.086 4.99664 176.85 4.75601C176.367 4.26342 176.125 3.68025 176.125 3.00648C176.125 2.67243 176.186 2.35819 176.303 2.06377C176.422 1.77218 176.597 1.50324 176.83 1.25978C177.066 1.01348 177.33 0.829472 177.619 0.70491C177.91 0.580347 178.224 0.518066 178.562 0.518066C178.901 0.518066 179.218 0.580347 179.506 0.70491C179.798 0.829472 180.059 1.01348 180.295 1.25978C180.528 1.50324 180.703 1.77218 180.822 2.06377C180.941 2.35819 181 2.67243 181 3.00648C181 3.34053 180.939 3.65477 180.817 3.95202C180.694 4.24361 180.517 4.51255 180.278 4.75601L180.281 4.75318Z" fill="#29B8AD"/>
<path d="M169.358 7.02075H172.964V23.0468H168.986V21.5124C168.489 22.0305 167.926 22.4438 167.298 22.7552C166.374 23.2138 165.313 23.4431 164.12 23.4431C161.96 23.4431 160.111 22.625 158.581 20.9887C157.054 19.3581 156.291 17.3736 156.291 15.0324C156.291 12.6912 157.054 10.6812 158.581 9.05904C159.345 8.24938 160.189 7.6379 161.113 7.23307C162.037 6.82541 163.04 6.62158 164.12 6.62158C165.31 6.62158 166.371 6.84806 167.295 7.30101C167.923 7.60959 168.486 8.01724 168.986 8.52965V7.01792H169.358V7.02075ZM161.51 18.2625C161.924 18.69 162.387 19.0099 162.904 19.2193C163.42 19.4317 163.997 19.5392 164.628 19.5392C165.258 19.5392 165.835 19.4317 166.354 19.2193C166.871 19.007 167.334 18.6871 167.748 18.2625C168.575 17.4104 168.989 16.3318 168.989 15.0324C168.989 13.7329 168.575 12.6544 167.751 11.8051C166.926 10.9529 165.888 10.5283 164.633 10.5283C163.378 10.5283 162.34 10.9529 161.516 11.8051C161.102 12.2297 160.794 12.711 160.588 13.2432C160.38 13.7811 160.277 14.3784 160.277 15.0324C160.277 15.6863 160.38 16.2836 160.588 16.8215C160.794 17.3566 161.105 17.835 161.516 18.2625H161.51Z" fill="#29B8AD"/>
<path d="M154.277 22.6307C154.022 22.8911 153.739 23.0865 153.431 23.2167C153.12 23.3469 152.784 23.4149 152.428 23.4149C152.073 23.4149 151.734 23.3498 151.426 23.2167C151.115 23.0865 150.832 22.8911 150.58 22.6307C150.327 22.3731 150.135 22.0843 150.005 21.7673C149.877 21.4502 149.811 21.1076 149.811 20.7453C149.811 20.3829 149.874 20.0404 149.999 19.7261C150.124 19.4119 150.313 19.1231 150.56 18.8627C150.81 18.6022 151.093 18.4041 151.407 18.2739C151.72 18.1436 152.062 18.0757 152.428 18.0757C152.795 18.0757 153.122 18.1408 153.431 18.2739C153.741 18.4041 154.025 18.6022 154.277 18.8599C154.53 19.1175 154.721 19.4062 154.852 19.7233C154.98 20.0404 155.046 20.3829 155.046 20.7453C155.046 21.1076 154.982 21.453 154.852 21.7673C154.724 22.0815 154.533 22.3702 154.277 22.6307Z" fill="#29B8AD"/>
<path d="M147.711 23.0499H143.969H143.78L143.669 22.8913L140.241 18.1042L136.815 22.8913L136.701 23.0499H136.515H132.743H132.01L132.44 22.4469L137.895 14.8259L132.74 7.62682L132.31 7.021H133.04H136.785H136.971L137.084 7.17953L140.227 11.5703L143.369 7.17953L143.483 7.021H143.669H147.442H148.175L147.742 7.62682L142.573 14.8486L148.011 22.4469L148.444 23.0499H147.711Z" fill="#29B8AD"/>
<path d="M126.398 22.6677V7.40318V7.021H126.77H130.005H130.377V7.40318V22.6677V23.0499H130.005H126.77H126.398V22.6677Z" fill="#29B8AD"/>
<path d="M130.103 4.75318C129.864 4.99664 129.601 5.18065 129.315 5.30522C129.026 5.42978 128.715 5.49206 128.387 5.49206C128.06 5.49206 127.752 5.42978 127.46 5.30522C127.172 5.18065 126.908 4.99664 126.672 4.75601C126.189 4.26342 125.947 3.68025 125.947 3.00648C125.947 2.67243 126.008 2.35819 126.125 2.06377C126.244 1.77218 126.419 1.50324 126.652 1.25978C126.888 1.01348 127.152 0.829472 127.441 0.70491C127.732 0.580347 128.046 0.518066 128.385 0.518066C128.723 0.518066 129.04 0.580347 129.329 0.70491C129.62 0.829472 129.881 1.01348 130.117 1.25978C130.35 1.50324 130.525 1.77218 130.644 2.06377C130.764 2.35819 130.822 2.67243 130.822 3.00648C130.822 3.34053 130.761 3.65477 130.639 3.95202C130.517 4.24361 130.339 4.51255 130.1 4.75601L130.103 4.75318Z" fill="#29B8AD"/>
<path d="M118.84 22.6675V0.379348V0H119.212H122.446H122.818V0.379348V22.6675V23.0497H122.446H119.212H118.84V22.6675Z" fill="#030836"/>
<path d="M111.619 7.02075H115.225V23.0468H111.244V21.5124C110.747 22.0305 110.183 22.4438 109.556 22.7552C108.632 23.2138 107.571 23.4431 106.377 23.4431C104.215 23.4431 102.369 22.625 100.839 20.9887C99.3122 19.3581 98.5488 17.3736 98.5488 15.0324C98.5488 12.6912 99.3122 10.6812 100.839 9.05904C101.603 8.24938 102.446 7.6379 103.371 7.23307C104.295 6.82541 105.297 6.62158 106.377 6.62158C107.568 6.62158 108.629 6.84806 109.553 7.30101C110.181 7.60959 110.744 8.01724 111.244 8.52965V7.01792H111.616L111.619 7.02075ZM103.771 18.2625C104.184 18.69 104.648 19.0099 105.164 19.2193C105.681 19.4317 106.258 19.5392 106.888 19.5392C107.518 19.5392 108.096 19.4317 108.615 19.2193C109.131 19.007 109.595 18.6871 110.008 18.2625C110.836 17.4104 111.249 16.3318 111.249 15.0324C111.249 13.7329 110.836 12.6544 110.011 11.8051C109.187 10.9529 108.149 10.5283 106.894 10.5283C105.639 10.5283 104.601 10.9529 103.776 11.8051C103.363 12.2325 103.052 12.711 102.849 13.2432C102.641 13.7811 102.538 14.3784 102.538 15.0324C102.538 15.6863 102.641 16.2836 102.849 16.8215C103.054 17.3537 103.363 17.835 103.776 18.2597L103.771 18.2625Z" fill="#030836"/>
<path d="M93.2368 8.59198C93.5782 8.15601 93.978 7.79648 94.4388 7.51338C95.2661 7.00381 96.2793 6.74902 97.4758 6.74902H97.8478V11.1059L97.4508 11.0804C96.8706 11.0436 96.3321 11.0917 95.8352 11.2304C95.341 11.3691 94.8802 11.5956 94.4582 11.907C93.6421 12.5129 93.2368 13.5348 93.2368 14.9758V23.0497H89.2559V7.0208H93.2368V8.59198Z" fill="#030836"/>
<path d="M82.0408 7.02103H85.6469V23.0471H81.666V21.81C81.2718 22.2233 80.8193 22.5602 80.3113 22.8178C79.484 23.2368 78.5152 23.4463 77.3992 23.4463C76.4942 23.4463 75.6725 23.2962 74.934 22.999C74.1928 22.6989 73.5349 22.2488 72.9686 21.6486C72.4023 21.0484 71.9775 20.3379 71.6944 19.5197C71.4168 18.7101 71.2752 17.7957 71.2752 16.7765V7.02103H75.2561V16.4396C75.2561 16.969 75.3227 17.4305 75.4587 17.8268C75.5892 18.209 75.7863 18.5317 76.0445 18.7978C76.3054 19.0639 76.6163 19.2649 76.9717 19.398C77.3381 19.5339 77.7601 19.6046 78.2348 19.6046C79.2703 19.6046 80.1003 19.2819 80.7249 18.6365C81.0331 18.3166 81.2663 17.9117 81.4217 17.4163C81.5827 16.9039 81.666 16.2953 81.666 15.5903V7.0267H82.038L82.0408 7.02103Z" fill="#030836"/>
<path d="M56.9695 16.8216C57.0778 17.1727 57.2194 17.4897 57.3943 17.7757C57.6414 18.1777 57.9606 18.5202 58.3492 18.8033C58.7435 19.0892 59.1848 19.3044 59.6679 19.4459C60.1537 19.5903 60.6923 19.6611 61.278 19.6611C62.0803 19.6611 62.7799 19.5167 63.3712 19.2251C63.9542 18.9392 64.4427 18.506 64.8342 17.9314L65.0313 17.6426L65.3283 17.821L67.9933 19.4091L68.3376 19.6129L68.1127 19.9498C66.5609 22.2797 64.2734 23.4461 61.2475 23.4461C58.7101 23.4461 56.6558 22.6506 55.0874 21.0596C53.5161 19.4686 52.7305 17.4586 52.7305 15.0353C52.7305 12.612 53.505 10.6558 55.054 9.04498C56.6031 7.43134 58.588 6.62451 61.0087 6.62451C62.1553 6.62451 63.2046 6.83117 64.1513 7.24449C65.1007 7.65781 65.9446 8.27496 66.6858 9.1016C67.4215 9.92258 67.9739 10.8313 68.3431 11.8278C68.7123 12.8243 68.8956 13.9029 68.8956 15.0693C68.8956 15.4288 68.8539 15.9072 68.7706 16.4961L68.7262 16.8216H56.9668H56.9695ZM56.9307 13.3735H64.8009C64.7009 12.9772 64.5649 12.6205 64.3928 12.3034C64.1651 11.8816 63.8736 11.5277 63.5183 11.2446C63.1574 10.9559 62.766 10.7407 62.3468 10.5963C61.9248 10.452 61.4696 10.3812 60.9782 10.3812C59.8678 10.3812 58.9489 10.6869 58.2216 11.3013C57.8579 11.607 57.5608 11.9694 57.3277 12.3855C57.1611 12.6856 57.0278 13.014 56.9279 13.3763L56.9307 13.3735Z" fill="#030836"/>
<path d="M44.1406 6.62451C45.0456 6.62451 45.8673 6.77455 46.6058 7.0718C47.347 7.37188 48.0021 7.82201 48.5712 8.42217C49.1376 9.02233 49.5623 9.7329 49.8455 10.5511C50.1258 11.3607 50.2646 12.2751 50.2646 13.2942V23.0469H46.2865V13.6283C46.2865 13.0989 46.2199 12.6375 46.0839 12.2411C45.9534 11.859 45.7563 11.5362 45.4981 11.2701C44.9734 10.7351 44.2406 10.4661 43.3078 10.4661C42.2723 10.4661 41.4423 10.7889 40.8176 11.4343C40.5095 11.7514 40.2763 12.159 40.1209 12.6545C39.9598 13.1669 39.8766 13.7755 39.8766 14.4804V23.0441H35.8984V7.02085H39.8766V8.26081C40.2708 7.84749 40.7233 7.5106 41.2313 7.25298C42.0586 6.834 43.0274 6.62451 44.1434 6.62451H44.1406Z" fill="#030836"/>
<path fill-rule="evenodd" clip-rule="evenodd" d="M5.13297 6.31001C2.00155 4.72751 0.116595 5.45506 0 7.65472V18.585C0 21.1527 2.0543 23.2476 4.5722 23.2476H5.13574V6.31001H5.13297Z" fill="#29B8AD"/>
<path fill-rule="evenodd" clip-rule="evenodd" d="M0.000198196 7.65517C0.116793 5.45552 2.00175 4.72796 5.13317 6.31047L14.1138 10.2115V7.4655C14.1138 5.60839 13.0367 4.04853 11.3682 3.32381L5.30528 0.693849C2.31545 -0.599899 -0.0247865 0.744806 0.000198196 3.55878V7.65517Z" fill="#43D0BB"/>
<path fill-rule="evenodd" clip-rule="evenodd" d="M0 7.65472C0.50247 5.76081 2.21253 5.60794 5.13297 7.19893V6.31001C2.00155 4.72751 0.116595 5.45506 0 7.65472Z" fill="#28ABA0"/>
<path fill-rule="evenodd" clip-rule="evenodd" d="M18.5349 17.1357C21.6663 18.7182 23.5513 17.9934 23.6679 15.7909V4.86062C23.6679 2.29294 21.6136 0.200861 19.0985 0.200861H18.5349V17.1385V17.1357Z" fill="#29B8AD"/>
<path fill-rule="evenodd" clip-rule="evenodd" d="M23.6683 15.7912C23.5517 17.9909 21.6667 18.7184 18.5353 17.1359L9.55469 13.2349V15.9809C9.55469 17.838 10.6318 19.3979 12.3002 20.1226L18.366 22.7497C21.353 24.0435 23.6933 22.6988 23.6683 19.8848V15.7884V15.7912Z" fill="#43D0BB"/>
<path fill-rule="evenodd" clip-rule="evenodd" d="M23.6679 15.7914C23.1654 17.6853 21.4554 17.8382 18.5349 16.2472V17.1361C21.6663 18.7186 23.5513 17.9939 23.6679 15.7914Z" fill="#28ABA0"/>
<path d="M187.241 19.7543V19.3636H189.969V19.7543H188.825V23H188.385V19.7543H187.241ZM190.648 19.3636H191.174L192.41 22.3821H192.452L193.688 19.3636H194.214V23H193.802V20.2372H193.766L192.63 23H192.232L191.096 20.2372H191.06V23H190.648V19.3636Z" fill="black"/>
</svg>
