<svg width="164" height="101" viewBox="0 0 164 101" fill="none" xmlns="http://www.w3.org/2000/svg">
<path d="M163.839 15.807C163.545 15.6895 163.231 15.3311 163.231 14.9905C163.231 14.6498 162.749 14.1093 162.596 13.8393C162.443 13.569 161.621 13.7687 161.457 13.5808C161.292 13.3927 160.716 13.7922 160.634 13.6043C160.552 13.4162 158.813 9.05796 158.602 8.4C158.391 7.74203 157.921 8.28401 157.556 7.97847C157.192 7.67312 156.913 8.08567 156.631 7.88603C156.349 7.68638 155.99 7.59673 155.719 7.89032C155.449 8.1841 154.878 8.35293 154.749 8.03581C154.619 7.71869 154.267 7.37785 154.173 7.88304C154.079 8.38823 152.793 11.2664 152.822 11.8831C152.851 12.4998 153.086 13.1813 153.409 13.804C153.733 14.4266 153.076 14.6205 153.198 14.8143C153.32 15.0082 153.556 15.4077 153.345 15.5309C153.133 15.6542 152.763 15.7483 152.916 15.9833C153.069 16.2182 152.867 16.8489 152.768 16.9744C152.669 17.0999 152.215 17.0779 152.215 17.0779C152.215 17.0779 151.935 17.2226 151.7 17.1345C151.594 17.0945 151.406 17.3341 151.371 17.4987C151.343 17.6285 151.574 17.785 151.53 17.9305C151.509 18.0003 151.472 18.0913 151.439 18.1796L146.541 19.6227L143.142 20.5825C143.142 20.5825 142.966 20.5384 142.279 20.6706C141.591 20.8029 140.684 22.1332 140.446 22.6531C140.208 23.1729 140.234 23.6663 139.847 24.1069C139.459 24.5474 138.701 25.1466 139.239 25.3227C139.776 25.4988 139.653 25.7016 139.53 25.8865C139.406 26.0716 139.75 26.2742 139.917 26.6971C140.085 27.1199 139.521 27.164 139.239 27.2168C138.957 27.2697 138.86 27.8776 138.71 28.0892C138.56 28.3008 138.106 28.7645 137.956 28.6045C137.806 28.4444 137.635 28.5385 137.239 28.6781C136.842 28.8176 136.648 29.1642 136.393 29.032C136.137 28.8997 135.613 28.7191 135.248 28.6796C134.882 28.64 132.741 29.4064 132.512 29.587C132.283 29.7676 132.419 30.2743 132.604 30.4857C132.789 30.6971 132.662 30.9175 132.745 30.8955C132.829 30.8734 133.049 30.7853 133.208 31.1159C133.366 31.4462 133.062 31.7238 132.798 31.9617C132.534 32.1996 132.926 32.1996 132.648 32.3978C132.404 32.572 131.229 33.8932 130.949 34.2101V34.21C130.949 34.21 130.261 34.8091 129.896 34.9148C129.539 35.0181 129.348 35.343 129.11 35.4114C129.074 35.3793 128.95 35.3098 128.534 35.27C127.979 35.2172 127.459 36.3009 127.089 36.3273C126.719 36.3536 126.106 36.9264 125.891 37.129C125.675 37.3317 125.45 36.834 125.172 36.847C124.895 36.8603 124.437 37.3272 124.111 37.3845C123.785 37.4419 123.657 37.9 123.481 38.1069C123.305 38.314 122.397 38.2435 122.397 38.0453C122.397 37.8471 123.309 37.8074 123.036 37.5233C122.735 37.2107 121.882 37.5917 121.771 37.5651C121.661 37.5386 121.723 37.2831 121.723 37.2831C121.723 37.2831 121.82 36.9468 122.16 36.571C122.501 36.195 122.325 35.6899 122.677 35.0321C123.03 34.3743 122.419 34.3155 122.56 33.9748C122.701 33.6342 123.006 33.9866 123.276 33.8573C123.547 33.7281 123.582 32.6591 123.429 32.4359C123.276 32.2127 123.135 32.0599 122.924 30.38C122.713 28.7001 121.761 28.1831 121.303 28.0539C120.845 27.9247 120.986 28.4181 120.751 28.4885C120.516 28.5591 119.964 28.5591 120.022 28.9702C120.081 29.3814 119.541 30.0509 119.341 30.1449C119.141 30.2388 118.425 29.8511 118.342 29.2404C118.26 28.6297 118.73 28.3475 119.118 28.3946C119.505 28.4416 119.282 27.9364 119.619 27.2785C119.955 26.6205 119.823 26.233 119.635 25.5927C119.447 24.9525 118.515 24.1614 119.188 24.3299C119.846 24.4944 119.74 24.2359 119.588 23.6486C119.435 23.0612 118.801 22.9555 117.955 22.8145C117.109 22.6735 116.181 22.2506 115.911 21.9218C115.641 21.5929 115.171 21.8982 114.936 22.0863C114.701 22.2742 114.454 22.3095 114.583 22.6854C114.713 23.0614 114.983 23.2375 114.513 23.6017C114.043 23.9659 113.832 23.9659 113.984 24.4122C114.137 24.8586 114.128 25.5823 113.867 25.8101C113.502 26.1273 113.409 25.4813 113.409 25.07C113.409 24.6588 113.491 23.7896 113.15 24.4122C112.809 25.0349 112.128 25.8572 111.787 26.1274C111.447 26.3977 110.871 26.5387 111.223 27.3115C111.576 28.0845 111.141 28.8295 110.918 29.3698C110.695 29.9103 111.059 29.9454 111.141 30.7209C111.223 31.4961 112.09 32.1341 112.185 32.4394C112.278 32.7448 112.14 35.7253 111.881 36.3245C111.623 36.9236 110.66 37.934 110.66 37.934C110.66 37.934 110.141 38.4905 109.613 38.4883C109.084 38.4861 108.877 38.2393 108.877 38.2393L107.582 35.5726C107.781 35.1731 107.723 34.2568 107.558 33.6342C107.394 33.0115 107.088 31.4022 107.182 30.7795C107.276 30.1568 107.494 28.9528 107.687 28.7589C107.881 28.5651 108.049 28.3008 108.022 27.8337C107.996 27.3668 108.489 26.7411 108.93 25.5429C109.37 24.3446 109.318 24.0098 108.93 24.4768C108.542 24.9438 108.243 25.6047 108.225 25.9835C108.207 26.3624 107.053 27.2786 106.868 27.4372C106.683 27.5958 106.736 27.7896 106.489 28.4416C106.242 29.0936 105.873 28.0188 106.207 27.8425C106.542 27.6664 106.745 27.305 106.727 27.0936C106.709 26.8822 107.229 26.1949 107.291 26.1067C107.325 26.0583 107.402 25.9696 107.437 25.8751L107.438 25.8757C107.438 25.8757 107.443 25.8637 107.45 25.837C107.45 25.8367 107.451 25.8363 107.451 25.8357C107.481 25.7311 107.565 25.3955 107.681 24.5766C107.828 23.5429 108.422 23.0317 108.862 22.5265C109.303 22.0213 109.632 21.7628 109.761 23.1432C109.89 24.5235 110.495 23.0961 110.395 22.3149C110.351 21.9714 110.536 21.721 111.199 21.727C111.863 21.7328 112.199 21.2048 112.404 20.911C112.61 20.6172 112.727 20.7935 113.555 20.9052C114.384 21.0169 114.713 21.058 114.419 21.5161C114.125 21.9742 114.824 22.0361 114.974 21.5161C115.124 20.9963 115.793 20.7143 116.516 21.0668C117.238 21.4192 117.943 20.9258 117.282 20.82C116.621 20.7143 116.146 20.0005 115.996 19.6746C115.846 19.3485 115.855 18.5556 115.079 19.1018C114.304 19.6481 113.388 19.3398 113.828 18.7847C114.269 18.2297 113.758 17.4191 113.317 17.9917C112.877 18.5643 112.965 17.9036 112.463 18.3354C111.961 18.7672 110.613 18.4586 110.419 18.8973C110.225 19.3358 109.67 19.2959 109.731 19.983C109.793 20.6703 108.965 19.5336 108.313 19.6659C107.661 19.7981 107.397 19.3663 106.727 19.0051C106.057 18.6439 105.723 18.7231 105.379 18.3619C105.035 18.0007 104.991 18.5117 105.053 18.8288C105.114 19.1459 104.524 19.2694 104.498 19.0226C104.471 18.7759 104.366 18.0446 104.568 17.7187C104.771 17.3926 105.458 16.961 106.031 16.6261C106.603 16.2913 106.048 15.648 105.678 16.0182C105.308 16.3884 104.824 16.1151 104.498 16.6086C104.171 17.102 103.308 17.1195 103.273 17.7011C103.237 18.2827 102.823 18.3884 102.321 18.4588C101.819 18.5294 101.546 18.5382 101.276 18.8025C101.007 19.0667 100.973 19.1153 100.506 19.1153C100.077 19.1153 99.7529 20.0896 99.7034 20.2471C99.3041 19.9643 99.0674 20.0429 98.9057 20.1066C98.7412 20.1712 98.4711 20.1888 98.6119 20.0185C98.7529 19.8481 99.0114 19.5133 98.7001 19.0962C98.3888 18.6792 97.9952 19.0023 97.5605 19.3019C97.1259 19.6014 96.9438 19.4018 96.7557 19.5486C96.6102 19.6623 95.4743 19.875 94.9684 19.9654C95.0664 19.8384 95.3057 19.5136 95.3057 19.3665C95.3057 19.1814 95.3585 18.5823 95.7726 18.459C96.1866 18.3357 96.8739 18.0362 97.2529 17.2607C97.6318 16.4853 99.0878 15.3223 101.015 14.732C102.557 14.2598 100.222 13.7629 99.6935 13.9155C99.1648 14.0682 97.4615 14.3267 96.6567 14.3207C95.852 14.3149 95.2588 13.7802 94.9415 13.7627C94.6244 13.7451 94.4766 14.1181 94.3476 13.8243C94.2184 13.5305 93.9937 13.6129 93.775 13.7362C93.5561 13.8594 93.4394 13.6241 93.5438 13.5335C93.794 13.3163 93.8022 13.0108 93.5849 12.6994C93.3675 12.3881 93.1443 12.4527 93.1618 12.717C93.1794 12.9813 92.8005 13.0235 92.5326 12.9607C92.2478 12.894 91.9578 12.6171 90.9298 12.5407C89.9019 12.4643 89.6376 12.2822 88.8564 12.2647C88.0752 12.2471 87.9342 11.5834 87.7816 11.5716C87.6288 11.5598 87.4703 11.272 87.3175 11.1488C87.1647 11.0255 87.1412 11.4424 87.0121 11.4541C86.8829 11.4659 86.5012 10.8432 86.5012 10.8432L81.7955 10.8374C74.5235 10.5291 70.296 10.2798 64.3164 9.78446C64.3164 9.78446 64.3116 9.82425 64.3026 9.89652C64.2658 9.81397 64.246 9.76859 64.246 9.76766C52.9942 8.30867 43.3789 6.42667 34.2711 4.4836L17.095 0C17.095 0 17.0862 0.0528524 17.0421 0.264267C16.998 0.475682 17.3329 0.422828 17.4562 0.66954C17.5796 0.916253 17.0156 1.0397 17.0068 1.33927C16.998 1.63884 17.6147 0.942774 17.7823 1.05726C17.9498 1.17174 17.4474 1.48905 17.3417 1.52416C17.236 1.55946 17.4562 1.71802 17.5268 1.91188C17.5972 2.10574 17.3066 1.88555 17.1039 2.00003C16.9013 2.11452 17.3859 2.14982 17.3331 2.40531C17.2802 2.6608 16.7515 2.6608 16.778 3.09259C16.8044 3.52438 17.1392 3.11911 17.2449 2.98688C17.3506 2.85466 17.3506 3.43624 17.3594 3.61254C17.3682 3.78884 17.6061 4.07066 17.6414 4.17637C17.6767 4.28208 17.6149 4.79306 17.43 4.82836C17.2449 4.86365 17.3594 4.34371 17.0511 4.04415C16.7427 3.74458 16.637 4.68735 16.5842 4.81061C16.5313 4.93388 16.1789 4.94284 16.1877 5.1367C16.1965 5.33056 16.3728 5.33056 16.355 5.5685C16.3375 5.80643 15.9938 5.85051 15.9057 5.88562C15.8175 5.92092 15.9497 6.24681 15.941 6.54638C15.9322 6.84595 15.5357 6.34374 15.4741 6.05296C15.4124 5.76217 15.8618 5.40097 15.853 5.23363C15.8442 5.06629 15.8177 4.82836 16.0997 4.66102C16.3817 4.49368 16.2891 4.19654 16.0732 3.81517C15.985 3.65941 15.4741 4.96936 15.3859 4.95181C15.2978 4.93425 15.2714 4.70509 15.3243 4.31738C15.3771 3.92966 15.9322 3.56846 15.9763 3.51561C16.0203 3.46275 16.0644 3.27767 15.8793 3.28645C15.6942 3.29523 15.571 2.4759 15.4741 2.46713C15.3771 2.45835 15.4477 3.03992 15.3418 3.03096C15.2361 3.02218 15.1657 2.64324 15.0863 2.48468C15.007 2.32612 14.4078 2.44938 14.2405 2.39653C14.0732 2.34367 13.7558 2.46694 13.6061 2.36123C13.4563 2.25552 13.5444 2.05289 13.3769 1.88555C13.2096 1.71821 12.8043 1.78862 12.5398 1.68291C12.2756 1.5772 11.2799 0.361384 11.2181 0.273232C11.1565 0.185081 11.2445 1.35701 11.1565 1.48905C11.0683 1.62128 10.8745 1.49783 10.8304 1.7974C10.7863 2.09696 11.3326 2.54631 11.3591 2.72243C11.3856 2.89873 11.2622 3.60357 11.1653 3.93825C11.0683 4.27311 10.8481 4.72247 10.892 5.02203C10.9361 5.3216 10.7863 5.44486 10.6365 5.60361C10.4868 5.76217 10.2137 5.71809 10.3811 6.10581C10.5749 6.29518 10.8084 6.09703 10.8965 5.91195C10.9847 5.72687 11.2136 5.99133 11.3634 6.27315C11.5132 6.55516 10.8259 6.37886 10.5882 6.44049C10.3502 6.50212 11.1918 6.92514 11.1653 7.10125C11.1389 7.27756 10.7863 7.45367 10.6894 7.52408C10.5925 7.59468 10.5131 7.70038 10.4868 7.95587C10.4602 8.21136 10.2005 8.19811 10.1739 8.1277C10.1474 8.05729 10.1515 7.32145 10.1564 7.15859C10.1609 7.00881 10.3381 6.95278 10.3415 6.81495C10.3459 6.62987 10.0992 6.49334 9.94945 6.46682C9.79967 6.4403 9.50888 6.70475 9.51784 6.84576C9.52662 6.98677 9.87026 7.23348 9.87026 7.48897C9.87026 7.74446 9.68966 8.3393 9.83067 8.50664C9.97168 8.67397 10.4782 8.52868 10.5928 8.52868C10.7073 8.52868 10.9012 8.52867 11.0334 8.73131C11.1656 8.93395 12.8749 9.72694 12.9806 9.92958C13.0785 10.1171 12.8366 10.5332 12.772 10.7332C12.7681 10.7237 12.7638 10.7142 12.7604 10.7048C12.6723 10.4581 12.8441 10.1938 12.6855 10.0088C12.527 9.82368 10.2494 8.90743 10.17 8.82805C10.0906 8.74868 9.93264 8.56733 9.67659 8.82805C9.42054 9.08877 9.74252 9.63206 9.61048 10.1277C9.51784 10.4757 8.47832 11.5066 8.37262 11.6917C8.26691 11.8768 8.49588 12.0706 8.46077 12.2292C8.42547 12.3877 8.0555 12.3965 7.89693 12.6169C7.73837 12.8371 7.8 13.5068 7.74715 13.6919C7.6943 13.877 7.28025 14.7669 7.09517 14.9077C6.91008 15.0487 6.9366 15.2161 7.03353 15.4803C7.13046 15.7446 6.7603 15.8415 6.4697 16.0529C6.17891 16.2644 6.57541 16.6433 6.26706 16.7843C5.95872 16.9253 5.83527 17.2512 5.73834 17.4451C5.64141 17.6389 5.27143 17.8591 5.15676 18.0089C5.04228 18.1587 5.33307 18.4935 5.19206 18.6874C5.05105 18.8813 4.87494 18.8019 4.70741 18.9782C4.54007 19.1543 4.56641 19.5333 4.57519 19.683C4.58396 19.8328 4.29318 20.2909 4.10828 20.3703C3.9232 20.4497 3.20958 20.062 2.98042 20.4848C2.75127 20.9076 3.46507 21.3307 3.57078 21.5245C3.67649 21.7184 3.5973 22.4144 3.43855 22.5818C3.28466 22.7443 3.1797 23.639 3.43108 24.014C3.41969 24.0103 3.40792 24.0062 3.39672 24.0025C2.9864 23.8637 2.46944 24.0002 2.69841 24.3527C2.92738 24.7051 3.21929 24.9225 2.86874 26.1971C2.71728 26.7481 2.31947 26.3749 2.3107 27.0445C2.29725 28.0677 1.96705 28.2295 1.54422 28.6876C1.12139 29.1457 0.451667 29.8683 0.715935 30.2648C0.980203 30.6613 1.50892 31.8683 1.56178 32.6701C1.61463 33.4719 0.768788 33.8596 0.786344 34.1326C0.8039 34.4059 1.12998 34.3265 1.13876 34.6701C1.14754 35.0138 0.601262 34.7758 0.63656 35.005C0.671858 35.2342 0.442702 35.4278 0.292919 35.516C0.143136 35.6041 -0.147654 35.6394 0.0902808 35.9741C0.328216 36.309 0.530852 36.3618 0.768787 36.0535C1.00672 35.7451 1.10365 35.7715 1.20058 36.3971C1.29751 37.0226 1.61463 37.2164 1.78216 37.4193C1.9495 37.6219 1.74686 37.8774 2.00254 38.0008C2.25803 38.1243 2.22273 38.5206 2.38148 38.7585C2.54004 38.9965 2.64575 39.1901 2.3021 38.9787C1.95846 38.7673 1.55319 39.014 1.55319 39.4809C1.55319 39.9478 1.86153 40.3092 2.00254 40.3443C2.14354 40.3796 2.22273 39.7981 2.40781 39.8685C2.59289 39.9389 2.49596 40.3178 2.74267 40.679C2.98939 41.0402 3.35936 40.7143 3.41222 40.4235C3.46507 40.1327 3.62363 39.7099 3.86157 39.7099C4.0995 39.7099 4.51355 39.9038 4.90127 39.9566C5.28899 40.0095 5.70304 39.7715 6.2228 39.8068C6.74256 39.8421 6.44299 40.4413 6.06424 40.7231C5.6853 41.0051 5.41225 40.5821 5.10391 40.4235C4.79556 40.265 4.02909 40.0623 3.87931 40.2384C3.72953 40.4147 4.05543 40.8464 4.04665 41.3045C4.03787 41.7626 4.18765 42.4234 4.31969 42.7495C4.45192 43.0755 4.34621 43.3927 4.21399 43.4192C4.08176 43.4455 4.02891 43.2959 3.81749 43.0315C3.60608 42.7672 3.71178 42.124 3.72934 41.7804C3.7469 41.4367 3.73812 41.0227 3.37692 41.2077C3.01572 41.3928 2.53985 41.3487 2.61923 42.3444C2.67731 43.0733 2.38129 43.2606 2.38129 43.4369C2.38129 43.6132 2.64556 43.6483 2.65434 44.133C2.66312 44.6176 2.18743 44.9172 2.25784 45.1815C2.32844 45.4457 2.85697 45.2696 3.09491 45.6661C3.33284 46.0626 2.97146 46.1859 2.97146 46.512C2.97146 46.8381 3.10369 46.8291 3.68508 47.8072C4.26665 48.7852 4.19606 49.7368 4.24891 49.957C4.30176 50.1772 4.85682 49.9305 4.91845 50.1421C4.98009 50.3535 4.6893 50.5298 4.75111 50.7236C4.81274 50.9175 5.5794 51.1642 5.59696 51.455C5.61452 51.7458 5.13006 51.9307 5.17413 52.2127C5.21821 52.4947 5.75571 52.5827 5.79082 52.8912C5.82612 53.1995 5.45595 53.5167 5.48247 54.0807C5.50881 54.6445 4.98027 54.4509 5.14761 55.0498C5.31495 55.6489 5.66737 55.693 6.00223 55.7106C6.3371 55.7281 7.10357 56.1775 7.35906 56.336C7.61455 56.4946 8.25776 56.3007 8.38121 56.4417C8.50447 56.5827 8.43406 56.9615 8.76893 56.9615C9.10379 56.9615 9.57947 57.5166 9.83496 57.7633C10.0905 58.01 10.0376 58.2655 10.2402 58.424C10.4429 58.5826 10.6896 58.2126 10.9187 58.3447C11.1479 58.4769 11.9056 59.1199 11.9497 59.2962C11.9937 59.4725 11.4387 59.587 11.4034 59.7809C11.3681 59.9747 11.1802 60.6267 11.5149 60.6708C11.8498 60.7149 12.4607 60.4506 12.6545 60.4947C12.8484 60.5387 13.4152 60.6034 13.5297 60.806C13.6442 61.0086 13.3416 61.2055 13.3241 61.4873C13.3065 61.7693 13.791 62.2803 14.0993 62.5974C14.4076 62.9145 14.7044 63.2965 14.7044 63.6136C14.7044 63.9307 13.8791 64.6357 13.9585 64.9969C14.0379 65.3581 14.258 65.0939 14.3638 64.9265C14.4695 64.7592 14.6192 64.6886 14.7956 64.8296C14.9719 64.9706 14.7692 65.3495 14.5401 65.464C14.3109 65.5785 14.2317 65.8693 14.7074 65.887C15.1833 65.9046 22.0821 66.4158 22.4257 66.3805C22.5211 66.3707 22.6177 66.3793 22.7191 66.3958L22.1439 67.5259L33.9943 74.2573L40.3013 75.2599L43.1266 75.8015L43.4219 74.0988L49.2061 74.9525C49.2106 75.0432 49.2188 75.1459 49.233 75.2647C49.3211 75.9961 49.7479 76.1429 50.4439 76.6714C51.14 77.2002 51.3339 77.9225 52.0828 78.8125C52.8317 79.7024 53.5806 79.9579 53.66 80.9623C53.7394 81.9667 54.594 83.8347 55.0433 84.7422C55.4927 85.6496 56.1271 85.3325 56.4179 85.6584C56.7087 85.9845 56.9201 85.7729 57.1756 86.0374C57.4311 86.3016 58.5589 87.174 59.0171 87.2532C59.4752 87.3326 59.9158 86.1959 60.0127 85.4911C60.1096 84.7862 60.2947 85.1299 60.832 84.425C61.3695 83.7202 61.7307 83.9141 62.0744 84.143C62.418 84.3722 63.1141 84.2047 63.6516 84.4602C64.1891 84.7156 63.9158 84.5042 64.5678 84.5659C65.2198 84.6275 66.145 85.2444 66.4621 85.7553C66.7793 86.2663 67.5372 86.6365 67.2904 87.033C67.0437 87.4295 68.1098 87.5527 68.2244 87.9405C68.3391 88.3282 68.1453 88.3898 68.6913 89.2357C69.2376 90.0815 70.1451 92.3107 70.5328 92.619C70.9205 92.9274 71.3787 92.998 71.3787 93.4914C71.405 94.8923 71.7046 94.3901 71.7839 95.5971C71.8631 96.8042 72.8765 96.5046 72.9557 97.1391C73.0351 97.7735 73.1408 98.1171 73.6605 98.2845C74.1803 98.4518 74.2068 99.1391 74.48 98.9365C74.7533 98.7338 75.0616 99.236 76.0748 99.2095C77.088 99.183 77.4316 99.0422 78.2334 100.02C79.0352 100.998 79.0968 99.747 79.0086 99.042C78.9205 98.3369 78.5064 98.152 78.5505 97.3591C78.5946 96.5661 78.0746 96.5748 78.1187 95.9845C78.1628 95.3941 77.9161 95.2356 77.5196 95.0417C77.1231 94.8479 77.079 94.2047 77.3257 94.2752C77.5724 94.3457 77.6341 94.707 77.7751 94.4338C77.9161 94.1608 78.2069 93.3059 78.2244 94.1871C78.242 95.0682 78.1803 95.0505 78.7442 94.0989C79.308 93.1474 79.0613 92.7772 78.4358 92.6368C77.8104 92.4961 77.6165 92.2224 78.013 92.2928C78.4095 92.3634 78.5152 92.1077 78.9117 92.1518C79.3082 92.1958 78.8501 92.9094 79.4492 92.5217C80.0483 92.134 80.013 90.9623 80.1453 90.927C80.2775 90.8917 80.7003 91.0151 80.7362 90.8125C80.772 90.6099 80.3832 89.9313 81.1938 90.3015C82.0043 90.6715 81.599 89.9932 81.3172 89.4557C81.0352 88.9182 81.8106 88.8125 81.8988 89.253C81.9869 89.6936 82.0751 89.4028 82.4098 89.1208C82.7446 88.8388 82.5595 89.4997 82.5155 89.764C82.4714 90.0283 81.5903 90.4776 82.1631 90.4072C82.7359 90.3366 83.6256 90.0195 84.3129 89.3147C85.0002 88.6098 86.0309 88.6451 86.2776 88.46C86.5243 88.275 86.2688 87.5966 87.1675 87.9138C88.0662 88.2309 88.0134 87.4291 87.3879 87.3499C86.7622 87.2707 87.5112 86.742 87.0177 86.2486C86.5243 85.7552 86.8943 85.6495 87.3349 85.438C87.7754 85.2266 88.4274 84.8301 88.1191 85.4556C87.8107 86.0812 88.2513 86.1429 87.8989 86.4777C87.5465 86.8126 87.9252 86.7685 88.78 86.5922C89.6347 86.4161 89.1677 85.676 90.3923 85.8521C90.953 85.9328 91.0535 85.8063 91.0389 85.6201C91.2244 85.7703 91.4814 85.6711 91.6788 85.6054C91.943 85.5172 91.9695 85.2442 92.3132 85.2617C92.6568 85.2793 93.115 85.4027 92.8595 85.1032C92.604 84.8036 92.3044 84.5922 92.3838 84.1957C92.463 83.7992 92.9506 83.6569 92.9389 84.0988C92.9213 84.7595 93.021 85.0709 94.0049 85.7288C94.9598 86.3674 95.5703 85.2119 96.8978 86.469C98.0776 87.586 98.3017 85.6291 96.8069 85.5174C95.8968 85.4494 97.1149 84.3701 97.3356 84.7244C97.7674 85.4175 98.2959 85.3178 98.208 84.9005C98.1241 84.504 99.1009 84.5892 98.622 85.5262C98.0974 86.553 99.1478 86.1401 99.4503 85.297C99.6481 84.7457 100.299 86.1165 99.6001 86.5835C98.9466 87.0199 99.5119 87.676 100.023 87.1914C100.534 86.7067 100.939 86.8712 100.745 87.3735C100.551 87.8757 100.931 87.4469 101.847 87.8611C102.763 88.2751 102.499 87.3236 102.243 87.0505C101.988 86.7775 102.067 86.3457 102.279 86.5308C102.49 86.7159 102.561 87.0771 102.693 86.8479C102.825 86.6187 103.089 86.6718 103.001 86.8567C102.728 88.3457 104.235 87.3589 103.68 86.4955C103.124 85.6321 105.151 86.3722 104.816 86.8567C104.481 87.3413 105.266 86.892 105.266 87.5793C105.266 88.2665 105.362 87.9052 106.155 87.9317C106.948 87.958 106.129 87.4823 105.733 87.2709C105.336 87.0595 105.6 86.9361 106.015 87.1211C106.429 87.3062 107.178 86.9977 106.825 86.9273C106.473 86.8569 106.214 86.6776 105.562 86.3517C104.91 86.0258 104.904 85.7467 105.38 85.7467C105.856 85.7467 105.477 85.4735 105.151 85.3342C104.825 85.1949 104.86 84.9713 105.609 85.2709C106.358 85.5705 105.521 84.7158 105.706 84.6013C105.891 84.4869 106.014 84.0551 105.829 83.773C105.644 83.491 105.318 84.0022 105.274 84.4867C105.23 84.9713 104.913 84.381 104.71 84.6189C104.508 84.8568 104.296 84.804 104.032 84.4691C103.768 84.1342 104.781 84.0198 105.186 83.7643C105.591 83.5088 104.719 83.6057 104.517 83.5969C104.314 83.5882 104.155 83.5 103.644 83.8612C103.133 84.2224 102.86 84.4338 102.552 84.0726C102.244 83.7114 101.97 83.6673 101.847 83.7643C101.724 83.8612 101.362 83.9847 101.186 83.4206C101.01 82.8568 101.768 83.2268 102.085 83.438C102.402 83.6492 102.508 83.2972 102.429 83.1827C102.349 83.0682 101.926 82.6717 102.913 82.6893C104.49 82.6364 104.482 83.2884 105.037 83.4029C105.19 83.4345 105.295 83.4438 105.359 83.433C105.464 83.4462 106.451 82.7509 106.724 82.7642C106.997 82.7774 107.068 82.9272 107.372 82.936C107.576 82.942 107.762 82.7432 107.948 82.6121C108.235 82.6635 108.525 82.7158 108.818 82.7686C108.852 82.7946 108.874 82.8125 108.874 82.8125C108.874 82.8125 108.873 82.7993 108.872 82.7782C108.895 82.7823 108.917 82.7864 108.94 82.7905C108.94 82.7905 109.482 82.5879 109.962 82.7685C110.373 82.9229 110.107 82.112 110.063 81.839C110.019 81.5659 110.204 81.4161 110.169 81.0504C110.134 80.6848 109.826 80.1121 109.997 79.7332C110.169 79.3543 110.31 79.8697 110.411 80.187C110.513 80.5042 110.592 80.7466 110.433 81.0417C110.275 81.3367 110.847 81.6804 110.856 81.8963C110.865 82.1122 111.438 82.2134 110.332 82.9315C109.226 83.6496 111.09 83.0637 111.57 83.0197C111.893 82.99 112.069 82.8249 112.056 82.6783C112.337 82.625 112.791 82.4101 112.816 82.2838C112.852 82.1075 112.657 81.9262 112.614 81.7052C112.582 81.5407 112.799 81.5965 112.94 81.7551C113.081 81.9136 113.169 81.8961 113.222 81.5612C113.275 81.2264 113.38 80.9974 113.654 81.2792C113.927 81.5612 113.301 81.8871 113.187 82.1779C113.072 82.4687 113.284 82.7595 113.469 82.8211C113.654 82.8828 114.746 82.9797 114.94 82.504C115.134 82.0281 113.566 82.5569 113.654 82.2485C113.742 81.9402 114.641 82.0194 114.729 81.8873C114.817 81.7551 115.169 81.3851 115.583 81.2794C115.997 81.1737 116.412 81.7728 116.2 81.861C115.989 81.9491 115.284 81.9491 115.425 82.1869C115.566 82.4248 116.006 82.2044 116.491 82.0987C116.976 81.993 117.213 82.3191 117.575 82.6979C117.936 83.0768 117.839 82.3454 117.821 81.993C117.804 81.6406 118.332 81.5261 118.535 81.7022C118.738 81.8785 118.57 82.3895 118.746 82.4071C118.923 82.4246 119.398 82.8124 119.116 82.8564C118.834 82.9005 118.174 82.5393 118.271 82.8211C118.367 83.1031 118.914 83.3233 119.028 83.6405C119.143 83.9576 118.826 84.6185 119.187 84.6185C119.548 84.6185 120.2 84.5569 120.517 84.0635C120.834 83.57 120.87 84.0988 120.834 84.504C120.799 84.9093 121.795 84.4777 121.671 84.0106C121.548 83.5437 122.42 83.6317 122.605 83.4996C122.791 83.3674 122.323 82.9534 122.685 82.9446C123.046 82.9358 123.09 82.5656 123.293 82.4071C123.495 82.2485 124.156 82.5656 124.464 82.5481C124.773 82.5305 124.368 83.4731 124.746 83.4643C125.125 83.4556 125.187 83.7374 125.487 83.6317C125.786 83.526 126.015 83.6845 125.918 84.0457C125.821 84.4069 126.183 84.5392 126.685 84.8034C127.187 85.0677 127.029 85.9752 127.029 85.9752C127.029 85.9752 127.152 86.2923 127.689 85.7901C128.227 85.2879 128.324 85.614 128.227 85.9752C128.13 86.3364 128.703 86.407 128.861 87.0149C129.196 88.2835 128.491 89.1031 128.289 89.6406C128.086 90.1781 128.341 90.5746 128.615 90.7419C128.888 90.9092 128.958 91.4292 129.231 91.4027C129.504 91.3761 129.258 90.8299 129.064 90.4774C128.87 90.125 128.764 89.702 129.117 89.7814C129.469 89.8606 129.381 90.6184 129.628 90.7417C129.875 90.865 129.725 90.0809 129.866 90.2395C130.438 90.7858 129.654 91.3321 129.919 91.5788C130.183 91.8255 129.98 91.9577 129.778 92.0457C129.575 92.1338 128.932 92.0281 129.24 92.354C129.549 92.6799 129.117 93.147 129.311 93.3231C129.504 93.4992 129.857 94.2394 130.192 94.0808C130.527 93.9223 130.588 94.4861 130.791 94.5567C130.993 94.6271 130.773 94.1337 131.187 93.7637C131.601 93.3937 131.901 94.0016 131.61 94.2483C131.319 94.4951 131.496 94.5479 131.83 94.7681C132.165 94.9883 131.733 95.4289 131.451 95.1911C131.169 94.9532 130.711 94.6977 130.641 94.9179C130.57 95.1381 130.747 95.4201 130.923 95.9576C131.099 96.4951 131.54 95.94 131.654 96.028C131.769 96.1162 131.866 96.4686 132.121 96.3364C132.377 96.2041 131.971 95.8782 132.342 95.5258C132.712 95.1734 132.791 95.6403 132.879 96.6712C132.967 97.7021 133.531 97.5699 133.813 97.4289C134.095 97.2879 133.857 97.9664 133.892 98.2484C133.928 98.5304 134.483 98.2572 134.721 98.0193C134.958 97.7813 135.293 97.5083 135.514 98.1515C135.734 98.7947 134.597 98.6449 134.588 99.1118C134.58 99.5787 135.39 98.9357 135.39 99.1206C135.39 99.3057 134.782 99.7197 135.214 99.8695C135.646 100.019 135.672 99.0853 136.095 99.473C136.518 99.8607 136.192 100.107 135.417 100.143C134.641 100.178 134.87 100.548 135.381 100.909C135.892 101.27 136.148 100.424 136.342 100.645C136.535 100.865 136.835 100.936 136.791 100.513C136.747 100.09 137.232 100.134 137.337 100.142C137.443 100.151 138.113 99.4816 138.113 99.4816C138.113 99.4816 137.751 99.323 137.663 98.5125C137.575 97.702 138.236 96.9618 138.43 97.0147C138.624 97.0675 138.879 96.9706 138.721 96.5565C138.562 96.1425 138.465 95.6225 138.566 95.3758C138.667 95.1291 138.571 94.8471 138.315 94.9881C138.06 95.1291 138.201 94.3626 138.465 94.292C138.729 94.2215 138.412 93.6313 138.227 93.8251C138.042 94.019 137.936 94.0366 137.795 93.7723C137.654 93.508 137.743 92.9001 137.531 92.5299C137.32 92.16 137.082 91.7106 137.179 91.5168C137.276 91.3229 137.654 92.1687 137.848 92.7679C138.042 93.367 138.298 93.3054 138.421 93.1291C138.544 92.953 137.038 90.1599 136.826 89.6575C136.615 89.1553 136.729 90.01 136.773 90.521C136.817 91.0319 136.306 90.054 136.121 89.7104C135.936 89.3668 136.157 89.587 136.368 89.1817C136.58 88.7764 135.91 88.1595 135.91 88.3975C135.91 88.6354 135.98 89.2521 135.725 89.0495C135.469 88.8468 134.949 87.6573 134.747 87.1904C134.544 86.7235 134.817 86.8204 135.143 87.0759C135.469 87.3314 135.725 87.4637 135.663 86.8558C135.601 86.2478 134.782 85.6575 134.526 85.7985C134.271 85.9395 134.077 85.6046 133.751 85.3667C133.425 85.1288 133.619 84.6882 134.015 85.0496C134.412 85.4108 134.491 85.2169 134.015 84.6531C133.54 84.0892 133.231 83.2081 133.117 82.6794C133.002 82.1507 132.615 81.7454 132.535 81.0671C132.456 80.3885 132.037 80.0582 132.134 79.9129C132.213 79.7939 132.317 79.5272 132.298 79.392C132.282 79.1893 131.981 78.8272 131.806 78.5032C131.56 78.0451 132.394 77.7513 132.053 77.1875C131.713 76.6236 132.417 77.0112 132.241 76.3416C132.065 75.6721 132.535 75.7072 132.864 75.6015C133.193 75.4958 132.793 75.0727 132.817 74.8613C132.84 74.6499 133.651 74.18 133.569 73.5338C133.486 72.8876 132.664 73.3458 132.417 73.3282C132.193 73.3121 132.231 72.4265 132.239 72.0522C132.358 72.0698 132.469 72.0952 132.518 72.1858C132.624 72.3796 132.542 72.6704 132.746 72.8378C132.951 73.0051 133.253 73.0051 133.465 73.0404C133.676 73.0757 133.892 73.1726 134.086 73.1726C134.28 73.1726 133.962 72.7623 134.218 72.7535C134.473 72.7448 134.879 72.7276 134.8 72.3929C134.72 72.058 133.813 72.2476 133.698 72.0184C133.584 71.7893 133.989 71.6132 134.262 71.7101C134.535 71.807 134.681 72.0739 134.689 71.8184C134.698 71.5629 134.8 71.4018 134.941 71.5603C135.082 71.7189 135.104 71.9103 135.288 71.8952C135.474 71.88 136.438 70.7763 136.949 70.4061C137.46 70.036 137.201 69.8025 137.236 69.3444C137.271 68.8863 137.575 69.0844 137.734 69.2254C137.892 69.3664 138.02 69.3356 138.029 69.0711C138.037 68.8069 138.747 68.3177 138.623 68.1945C138.5 68.0712 138.571 67.8421 138.641 67.5162C138.711 67.1901 139.082 66.9699 139.17 66.7056C139.242 66.4888 140.07 65.7384 140.366 65.4754C140.483 65.4764 140.827 65.4588 140.87 65.2253C140.923 64.9433 141.099 64.776 141.39 64.9786C141.681 65.1813 142.174 65.3047 142.024 64.9611C141.875 64.6174 141.663 63.9389 142.095 64.4677C142.527 64.9962 143.02 65.3223 142.791 64.8201C142.562 64.3179 142.544 63.8422 142.985 63.5073C143.425 63.1725 142.703 63.0139 143.047 62.917C143.39 62.82 143.725 62.1944 143.725 62.1944C143.725 62.1944 143.205 62.4764 143.082 62.2209C142.958 61.9654 143.549 61.5073 143.804 61.3046C144.06 61.102 144.456 61.3575 144.791 61.2871C145.126 61.2165 145.223 60.8465 145.514 60.7849C145.804 60.7232 146.192 60.8553 146.571 60.6967C146.95 60.5382 147.302 59.9125 146.941 59.516C146.58 59.1195 146.377 59.6305 146.069 59.9654C145.76 60.3002 145.09 60.2296 144.773 60.168C144.456 60.1064 144.086 59.6305 144.236 59.5601C144.386 59.4897 144.949 59.7803 145.311 59.895C145.672 60.0095 146.351 59.4632 146.298 59.1813C146.245 58.8993 145.699 59.3489 145.417 59.4015C145.135 59.4544 144.791 59.1195 144.641 59.1107C144.492 59.102 144.201 59.375 144.289 58.7583C144.43 57.7892 145.32 58.9434 145.531 58.864C145.743 58.7847 145.091 58.1768 145.311 57.9478C145.531 57.7186 145.963 58.6614 146.351 58.8465C146.738 59.0316 146.686 58.4588 147.012 58.3796C147.337 58.3004 147.505 57.7452 147.276 57.666C147.047 57.5866 146.236 57.6572 146.192 57.384C146.148 57.1107 146.906 57.2166 147.223 57.3046C147.54 57.3927 147.787 57.3133 147.901 56.8993C148.016 56.4852 147.84 55.7714 147.435 55.6041C147.029 55.4368 147.144 56.1679 147.276 56.2826C147.408 56.3971 147.223 57.0932 146.818 56.9083C146.413 56.7232 146.906 56.4765 146.879 56.1153C146.853 55.7541 146.642 55.8861 146.527 56.0359C146.413 56.1857 146.245 56.353 145.99 56.2385C145.734 56.1241 145.408 56.3355 145.232 56.5293C145.056 56.7232 144.677 57.0403 144.571 56.6263C144.465 56.2122 144.924 55.9214 145.338 55.9565C145.752 55.9918 145.717 55.5513 145.426 55.3398C145.135 55.1284 145.664 54.9521 146.113 55.1284C146.562 55.3045 146.862 55.3839 147.029 55.3223C147.197 55.2607 147.47 54.8289 147.496 54.4058C147.516 54.0876 147.207 53.7034 147.053 53.5327C147.061 53.3938 147.1 52.6028 146.923 52.4984C146.729 52.384 146.844 52.8025 146.584 52.8376C146.324 52.8729 146.289 52.4807 146.06 52.4984C145.831 52.516 145.893 52.8596 145.364 52.8466C144.835 52.8333 144.567 52.5603 144.298 52.3266C144.029 52.0932 143.646 51.8289 143.17 51.776C142.694 51.7232 141.95 51.7495 142.029 51.6616C142.108 51.5734 142.355 51.4236 142.826 51.3004C143.298 51.1771 144.095 51.4767 144.355 51.6264C144.615 51.7762 145.333 52.5339 145.505 52.3621C145.677 52.1903 145.214 51.5869 144.998 51.4459C144.782 51.3048 144.716 51.2432 144.922 51.001C145.128 50.7588 144.45 50.6969 143.837 50.5033C143.225 50.3094 143.353 50.0517 143.681 50.0076C144.009 49.9635 144.705 50.12 144.879 50.0229C145.053 49.926 144.659 49.8358 144.406 49.7519C144.153 49.6682 144.487 49.6287 144.534 49.3907C144.571 49.1987 144.409 48.7834 144.308 48.5677C144.384 48.568 144.475 48.4726 144.54 48.4369C144.628 48.3886 144.703 48.4149 144.721 48.5294C144.738 48.6439 144.963 48.8993 145.029 48.9214C145.095 48.9434 145.223 48.7671 145.117 48.5557C145.011 48.3443 144.8 48.2474 144.796 48.0843C144.791 47.9213 144.681 47.9433 144.514 47.939C144.346 47.9345 143.897 47.6219 143.747 47.4676C143.597 47.3134 143.615 47.1415 143.765 47.1505C143.914 47.1593 144.271 47.5162 144.399 47.6264C144.527 47.7366 144.729 47.6131 144.61 47.406C144.492 47.1989 144.171 46.9787 144.063 46.7408C143.954 46.5028 143.819 46.0594 143.933 45.8831C144.048 45.7068 143.789 45.6011 143.699 45.4573C143.608 45.3133 144.116 45.2254 144.051 45.1225C143.986 45.0197 144.157 44.8404 144.051 44.7994C143.945 44.7583 143.681 44.6613 143.781 44.5702C143.881 44.4791 143.775 44.3353 143.569 44.1502C143.364 43.9651 143.493 43.8418 143.584 43.8859C143.675 43.93 143.945 44.0475 143.936 43.9417C143.928 43.836 143.96 43.7303 143.998 43.5806C144.036 43.4308 144.297 43.3955 144.365 43.3897C144.433 43.3839 144.494 43.143 144.6 43.043C144.706 42.9431 144.718 42.761 144.662 42.6525C144.606 42.5438 144.759 42.2708 144.941 42.1884C145.123 42.1063 145.193 42.3735 145.39 42.3735C145.587 42.3735 145.211 42.7024 145.278 42.77C145.346 42.8376 145.352 43.0255 145.293 43.0813C145.234 43.1372 144.841 43.187 144.741 43.3105C144.641 43.4338 144.494 43.8215 144.441 43.9655C144.389 44.1095 144.597 44.3855 144.671 44.2916C144.744 44.1976 144.941 44.1946 144.985 44.3709C145.029 44.5472 144.862 44.9553 144.92 45.0933C144.979 45.2313 145.226 45.4192 145.231 45.5574C145.237 45.6954 145.014 45.716 144.952 45.5927C144.891 45.4693 144.597 45.484 144.532 45.6721C144.468 45.86 144.861 45.9687 145.008 45.9892C145.155 46.0098 145.487 46.2242 145.628 46.3299C145.769 46.4356 145.449 46.6001 145.325 46.4914C145.202 46.3827 144.985 46.3446 144.917 46.3827C144.85 46.4208 144.932 46.6177 145.043 46.7176C145.155 46.8175 144.897 47.0347 144.941 47.214C144.985 47.3931 145.619 47.6516 145.654 47.7866C145.69 47.9216 145.936 48.0068 145.933 47.9394C145.93 47.8718 145.895 47.4783 145.969 47.5194C146.042 47.5605 146.121 47.7132 146.189 47.5692C146.256 47.4252 146.283 47.6544 146.43 47.6867C146.576 47.719 146.397 47.8423 146.371 48.0098C146.344 48.1771 146.579 48.0509 146.764 48.0832C146.95 48.1155 146.665 48.3534 146.665 48.4414C146.665 48.5294 146.914 48.4414 146.976 48.503C147.037 48.5647 146.729 48.7144 146.685 48.873C146.641 49.0316 146.729 49.2871 146.985 49.1373C147.24 48.9875 147.443 48.732 147.637 48.6439C147.83 48.5557 148.324 48.4059 148.386 48.1945C148.447 47.9831 148.527 47.4368 148.65 47.4368C148.773 47.4368 148.676 48.1504 148.747 48.3002C148.817 48.45 149.029 47.9653 149.04 47.4631C149.052 46.9609 148.782 46.8377 148.949 46.7055C149.08 46.6022 149.026 46.4154 148.996 46.3381C149.036 46.331 149.17 46.291 149.125 46.0755C149.041 45.6657 148.791 46.0402 148.447 45.9786C148.103 45.9169 148.733 45.7873 148.562 45.589C148.39 45.3908 148.76 45.4095 148.874 45.3001C148.989 45.1906 148.773 44.9034 148.584 44.9168C148.271 44.9389 147.799 44.5469 147.777 44.3265C147.755 44.1063 147.363 43.811 147.337 43.4233C147.311 43.0356 146.998 42.9299 146.883 42.8197C146.769 42.7095 146.301 42.5026 146.412 42.2558C146.522 42.0091 146.266 41.811 146.231 41.7228C146.204 41.656 146.241 41.6339 146.344 41.6436C146.489 41.7079 146.649 41.7731 146.746 41.8946C146.923 42.1148 147.002 41.7977 147.222 41.7802C147.443 41.7626 147.716 41.7449 147.561 42.2558C147.406 42.7668 147.848 42.8462 147.874 42.4673C147.901 42.0883 148.253 41.6126 148.209 41.41C148.165 41.2074 148.561 40.5729 148.685 40.4672C148.808 40.3615 148.958 39.7359 148.905 39.551C148.852 39.3659 148.976 38.9059 149.055 38.6151C149.134 38.3243 148.94 37.2867 148.72 37.2426C148.5 37.1985 148.033 37.3836 147.962 37.2426C147.892 37.1016 148.012 36.5876 148.153 36.3204C148.288 36.0641 148.51 35.5823 148.492 35.4416C148.645 35.4751 148.777 35.7474 148.931 35.7095C149.028 35.6859 149.227 35.4543 149.325 35.2121C149.418 35.2033 149.627 35.1789 149.716 35.1279C149.83 35.0618 150.051 34.7269 150.257 34.6169C150.465 34.5067 150.795 34.4406 150.887 34.3306C150.98 34.2204 151.152 33.8196 151.227 33.6741C151.301 33.5288 151.39 33.7623 151.46 33.7666C151.53 33.7709 151.842 33.6506 152.259 33.5154C152.676 33.3804 153.998 32.8752 154.191 32.7812C154.282 32.7371 154.358 32.6723 154.414 32.6156C154.647 32.4977 155.417 32.0973 155.5 31.9031C155.597 31.6739 155.345 31.2731 155.328 31.1454C155.31 31.0176 155.293 30.815 155.522 30.8062C155.751 30.7974 155.72 31.4845 155.883 31.6168C156.046 31.749 156.006 31.3215 156.059 31.2335C156.108 31.1527 156.354 31.3008 156.411 31.1691C156.507 31.2556 156.751 31.2727 156.796 31.1513C156.814 31.1043 156.84 30.8019 156.958 30.7959C157.075 30.7902 157.193 30.6432 157.164 30.3731C157.134 30.1029 157.439 30.0618 157.551 30.2263C157.662 30.3909 157.522 30.5787 157.586 30.7608C157.651 30.9429 157.945 30.9136 158.191 30.702C158.438 30.4906 158.879 30.0911 159.137 29.9854C159.396 29.8797 159.384 30.191 159.572 30.2907C159.76 30.3905 159.713 29.9677 159.695 29.6681C159.678 29.3685 159.343 28.8164 159.169 28.5402C158.995 28.2642 158.515 28.0586 158.297 28.176C158.08 28.2935 158.309 28.6284 158.585 28.6224C158.861 28.6166 158.908 28.7459 159.055 28.9044C159.202 29.063 159.231 29.5388 158.996 29.5446C158.761 29.5504 158.509 29.8677 158.291 29.903C158.074 29.9383 157.721 29.6974 157.692 29.5095C157.539 28.9457 157.163 29.2863 157.046 29.1336C156.928 28.9808 157.334 28.8751 157.122 28.5815C156.911 28.2879 156.141 27.9002 156.188 28.188C156.235 28.4758 155.9 28.4582 155.695 28.2291C155.489 27.9999 155.724 27.9413 155.701 27.812C155.677 27.6828 155.542 27.6006 155.853 27.4536C156.165 27.3069 155.93 27.0837 156.083 26.9662C156.235 26.8487 156.376 26.7195 156.176 26.602C155.977 26.4845 155.737 26.2576 155.638 25.8854C155.638 25.8854 155.626 25.8744 155.607 25.8591C155.715 25.8436 155.776 25.7776 155.786 25.6563C155.79 25.6045 155.79 25.5616 155.787 25.5233C155.825 25.5166 155.925 25.4777 156.143 25.3191C156.36 25.1606 156.529 24.6399 156.312 24.2171C156.552 24.2581 156.905 24.0292 157.052 23.7942C157.198 23.5593 156.934 23.5651 156.822 23.6592C156.711 23.7531 156.564 23.6357 156.582 23.4243C156.599 23.2128 157.439 23.1071 157.422 22.8897C157.404 22.6724 156.875 22.3537 156.869 22.1731C156.857 21.7955 157.294 21.7066 157.445 21.7326C157.615 21.7619 157.668 22.1438 157.786 22.3552C157.903 22.5666 158.185 22.4962 158.279 22.3024C158.373 22.1085 157.903 21.7385 157.956 21.5505C158.009 21.3624 158.385 21.0688 158.397 20.7635C158.408 20.4581 158.596 20.2936 158.749 20.4697C158.946 20.6968 158.678 20.9631 159.154 20.916C159.441 20.8878 159.154 20.5225 159.137 20.358C159.119 20.1935 159.237 19.941 159.248 19.5768C159.26 19.2126 159.025 18.8551 159.025 18.2846C159.025 17.8911 159.502 18.025 159.519 18.2788C159.442 19.1011 159.918 19.3771 159.947 18.8191C159.977 18.261 160.394 18.1142 160.576 18.4491C161.016 19.2303 161.381 18.7311 160.952 18.3199C160.632 18.0132 161.11 17.8793 161.21 18.1495C161.31 18.4198 161.903 18.543 161.745 18.2788C161.586 18.0145 161.598 17.7678 161.845 17.9617C162.091 18.1555 162.556 17.9602 162.279 17.7913C161.645 17.4036 161.892 17.0101 162.197 17.3156C162.502 17.621 162.896 17.4684 162.826 17.0572C162.755 16.6459 163.058 16.8898 163.469 16.7841C163.88 16.6792 164.132 15.9244 163.839 15.807Z" fill="#136D6A"/>
</svg>
